<svg version="1.2" baseProfile="tiny-ps" xmlns="http://www.w3.org/2000/svg" viewBox="0 0 2740 3202" width="2740" height="3202">
	<title>Layer 1</title>
	<style>
		tspan { white-space:pre }
		.shp0 { fill: #371a45 } 
		.shp1 { fill: #807a84 } 
		.shp2 { fill: #ffffff } 
		.shp3 { fill: #ffbe06 } 
		.shp4 { fill: #262f6a } 
		.shp5 { fill: #00bae5 } 
		.shp6 { fill: #f43f08 } 
		.shp7 { fill: #6b184e } 
		.shp8 { fill: #636a87 } 
	</style>
	<g id="Layer 1">
		<g id="&lt;Group&gt;">
			<g id="&lt;Group&gt;">
			</g>
			<g id="&lt;Group&gt;">
				<g id="&lt;Group&gt;" style="opacity: 0.302">
					<path id="&lt;Path&gt;" class="shp0" d="M2740 3086.62C2740 3150.34 2126.63 3202 1370 3202C613.37 3202 0 3150.34 0 3086.62C0 3022.89 613.37 2971.23 1370 2971.23C2126.63 2971.23 2740 3022.89 2740 3086.62Z" />
				</g>
				<g id="&lt;Group&gt;">
					<g id="&lt;Group&gt;">
						<path id="&lt;Path&gt;" class="shp1" d="M2361.11 1585.63L1107.77 1585.63C1072.17 1585.63 1043.32 1556.78 1043.32 1521.18L1043.32 1070.49C1043.32 1034.9 1072.17 1006.04 1107.77 1006.04L2361.11 1006.04C2396.7 1006.04 2425.56 1034.9 2425.56 1070.49L2425.56 1521.18C2425.56 1556.78 2396.7 1585.63 2361.11 1585.63Z" />
						<path id="&lt;Compound Path&gt;" fill-rule="evenodd" class="shp0" d="M2361.11 1588.13L1107.77 1588.13C1070.85 1588.13 1040.81 1558.1 1040.81 1521.18L1040.81 1070.49C1040.81 1033.58 1070.85 1003.54 1107.77 1003.54L2361.11 1003.54C2398.02 1003.54 2428.06 1033.58 2428.06 1070.49L2428.06 1521.18C2428.06 1558.1 2398.02 1588.13 2361.11 1588.13ZM1107.77 1008.54C1073.61 1008.54 1045.81 1036.33 1045.81 1070.49L1045.81 1521.18C1045.81 1555.34 1073.61 1583.13 1107.77 1583.13L2361.11 1583.13C2395.27 1583.13 2423.06 1555.34 2423.06 1521.18L2423.06 1070.49C2423.06 1036.33 2395.27 1008.54 2361.11 1008.54L1107.77 1008.54Z" />
					</g>
					<g id="&lt;Group&gt;" style="opacity: 0.549">
						<path id="&lt;Path&gt;" class="shp2" d="M2419.23 1042.66C2411.28 1039.1 2402.39 1037.12 2393.12 1037.12L1139.78 1037.12C1104.18 1037.12 1075.33 1065.98 1075.33 1101.57L1075.33 1552.28C1075.33 1562.21 1077.58 1571.7 1081.64 1580.09C1059.04 1570.11 1043.3 1547.46 1043.3 1521.18L1043.3 1070.47C1043.3 1034.88 1072.15 1006.02 1107.75 1006.02L2361.09 1006.02C2386.7 1006.02 2408.86 1021 2419.23 1042.66Z" />
					</g>
					<g id="&lt;Group&gt;">
						<path id="&lt;Compound Path&gt;" fill-rule="evenodd" class="shp0" d="M2361.11 1603.24L1107.77 1603.24C1062.52 1603.24 1025.7 1566.43 1025.7 1521.18L1025.7 1070.49C1025.7 1025.25 1062.52 988.43 1107.77 988.43L2361.11 988.43C2406.36 988.43 2443.17 1025.25 2443.17 1070.49L2443.17 1521.18C2443.17 1566.43 2406.36 1603.24 2361.11 1603.24ZM1107.77 1023.65C1081.94 1023.65 1060.93 1044.66 1060.93 1070.49L1060.93 1521.18C1060.93 1547.01 1081.94 1568.02 1107.77 1568.02L2361.11 1568.02C2386.93 1568.02 2407.94 1547.01 2407.94 1521.18L2407.94 1070.49C2407.94 1044.66 2386.93 1023.65 2361.11 1023.65L1107.77 1023.65Z" />
					</g>
					<g id="&lt;Group&gt;">
						<path id="&lt;Path&gt;" class="shp1" d="M2438.81 1120.77L2306.71 1120.77L2306.71 988.67L2350.39 988.67C2399.23 988.67 2438.81 1028.26 2438.81 1077.09L2438.81 1120.77Z" />
						<path id="&lt;Compound Path&gt;" fill-rule="evenodd" class="shp0" d="M2441.31 1123.27L2304.21 1123.27L2304.21 986.17L2350.39 986.17C2400.53 986.17 2441.31 1026.96 2441.31 1077.1L2441.31 1123.27ZM2309.21 1118.27L2436.31 1118.27L2436.31 1077.1C2436.31 1029.72 2397.77 991.17 2350.39 991.17L2309.21 991.17L2309.21 1118.27Z" />
					</g>
					<g id="&lt;Group&gt;" style="opacity: 0.549">
						<path id="&lt;Path&gt;" class="shp2" d="M2423.73 1027.64C2410.67 1020.01 2395.43 1015.62 2379.19 1015.62L2335.53 1015.62L2335.53 1120.77L2306.73 1120.77L2306.73 988.69L2350.39 988.69C2380.89 988.69 2407.82 1004.16 2423.73 1027.64Z" />
					</g>
					<g id="&lt;Group&gt;">
						<path id="&lt;Compound Path&gt;" fill-rule="evenodd" class="shp0" d="M2438.81 1138.38L2306.71 1138.38C2296.99 1138.38 2289.1 1130.5 2289.1 1120.77L2289.1 988.67C2289.1 978.95 2296.99 971.06 2306.71 971.06L2350.39 971.06C2408.86 971.06 2456.43 1018.63 2456.43 1077.1L2456.43 1120.77C2456.43 1130.5 2448.54 1138.38 2438.81 1138.38ZM2324.33 1103.16L2421.2 1103.16L2421.2 1077.1C2421.2 1038.05 2389.44 1006.28 2350.39 1006.28L2324.33 1006.28L2324.33 1103.16Z" />
					</g>
					<g id="&lt;Group&gt;">
						<path id="&lt;Path&gt;" class="shp0" d="M2377.11 1064.09C2377.11 1071.92 2370.76 1078.26 2362.94 1078.26C2355.11 1078.26 2348.77 1071.92 2348.77 1064.09C2348.77 1056.27 2355.11 1049.92 2362.94 1049.92C2370.76 1049.92 2377.11 1056.27 2377.11 1064.09Z" />
					</g>
					<g id="&lt;Group&gt;">
						<path id="&lt;Path&gt;" class="shp1" d="M1020.46 1120.77L1152.56 1120.77L1152.56 988.67L1108.88 988.67C1060.05 988.67 1020.46 1028.26 1020.46 1077.09L1020.46 1120.77Z" />
						<path id="&lt;Compound Path&gt;" fill-rule="evenodd" class="shp0" d="M1155.06 1123.27L1017.96 1123.27L1017.96 1077.1C1017.96 1026.96 1058.75 986.17 1108.88 986.17L1155.06 986.17L1155.06 1123.27ZM1022.96 1118.27L1150.06 1118.27L1150.06 991.17L1108.88 991.17C1061.51 991.17 1022.96 1029.72 1022.96 1077.1L1022.96 1118.27Z" />
					</g>
					<g id="&lt;Group&gt;" style="opacity: 0.549">
						<path id="&lt;Path&gt;" class="shp2" d="M1152.56 988.69L1152.56 1012.22L1132.87 1012.22C1084.05 1012.22 1044.45 1051.82 1044.45 1100.64L1044.45 1120.77L1020.48 1120.77L1020.48 1077.11C1020.48 1028.24 1060.03 988.69 1108.9 988.69L1152.56 988.69Z" />
					</g>
					<g id="&lt;Group&gt;">
						<path id="&lt;Compound Path&gt;" fill-rule="evenodd" class="shp0" d="M1152.56 1138.38L1020.46 1138.38C1010.74 1138.38 1002.85 1130.5 1002.85 1120.77L1002.85 1077.1C1002.85 1018.63 1050.42 971.06 1108.88 971.06L1152.56 971.06C1162.29 971.06 1170.18 978.95 1170.18 988.67L1170.18 1120.77C1170.18 1130.5 1162.29 1138.38 1152.56 1138.38ZM1038.08 1103.16L1134.95 1103.16L1134.95 1006.28L1108.88 1006.28C1069.84 1006.28 1038.08 1038.05 1038.08 1077.1L1038.08 1103.16Z" />
					</g>
					<g id="&lt;Group&gt;">
						<path id="&lt;Path&gt;" class="shp0" d="M1082.17 1064.09C1082.17 1071.92 1088.51 1078.26 1096.34 1078.26C1104.16 1078.26 1110.51 1071.92 1110.51 1064.09C1110.51 1056.27 1104.16 1049.92 1096.34 1049.92C1088.51 1049.92 1082.17 1056.27 1082.17 1064.09Z" />
					</g>
					<g id="&lt;Group&gt;">
						<path id="&lt;Path&gt;" class="shp1" d="M2438.81 1471.36L2306.71 1471.36L2306.71 1603.46L2350.39 1603.46C2399.23 1603.46 2438.81 1563.87 2438.81 1515.04L2438.81 1471.36Z" />
						<path id="&lt;Compound Path&gt;" fill-rule="evenodd" class="shp0" d="M2350.39 1605.96L2304.21 1605.96L2304.21 1468.86L2441.31 1468.86L2441.31 1515.04C2441.31 1565.17 2400.53 1605.96 2350.39 1605.96ZM2309.21 1600.96L2350.39 1600.96C2397.77 1600.96 2436.31 1562.42 2436.31 1515.04L2436.31 1473.86L2309.21 1473.86L2309.21 1600.96Z" />
					</g>
					<g id="&lt;Group&gt;" style="opacity: 0.549">
						<path id="&lt;Path&gt;" class="shp2" d="M2438.81 1471.38L2438.81 1500.83L2334.16 1500.83L2334.16 1603.46L2306.73 1603.46L2306.73 1471.38L2438.81 1471.38Z" />
					</g>
					<g id="&lt;Group&gt;">
						<path id="&lt;Compound Path&gt;" fill-rule="evenodd" class="shp0" d="M2350.39 1621.07L2306.71 1621.07C2296.99 1621.07 2289.1 1613.19 2289.1 1603.46L2289.1 1471.36C2289.1 1461.63 2296.99 1453.75 2306.71 1453.75L2438.81 1453.75C2448.54 1453.75 2456.43 1461.63 2456.43 1471.36L2456.43 1515.04C2456.43 1573.5 2408.86 1621.07 2350.39 1621.07ZM2324.33 1585.85L2350.39 1585.85C2389.44 1585.85 2421.2 1554.08 2421.2 1515.04L2421.2 1488.97L2324.33 1488.97L2324.33 1585.85Z" />
					</g>
					<g id="&lt;Group&gt;">
						<path id="&lt;Path&gt;" class="shp0" d="M2377.11 1528.04C2377.11 1520.21 2370.76 1513.87 2362.94 1513.87C2355.11 1513.87 2348.77 1520.21 2348.77 1528.04C2348.77 1535.87 2355.11 1542.21 2362.94 1542.21C2370.76 1542.21 2377.11 1535.87 2377.11 1528.04Z" />
					</g>
					<g id="&lt;Group&gt;">
						<path id="&lt;Path&gt;" class="shp1" d="M1020.46 1471.36L1152.56 1471.36L1152.56 1603.46L1108.88 1603.46C1060.05 1603.46 1020.46 1563.87 1020.46 1515.04L1020.46 1471.36Z" />
						<path id="&lt;Compound Path&gt;" fill-rule="evenodd" class="shp0" d="M1155.06 1605.96L1108.88 1605.96C1058.75 1605.96 1017.96 1565.17 1017.96 1515.04L1017.96 1468.86L1155.06 1468.86L1155.06 1605.96ZM1022.96 1473.86L1022.96 1515.04C1022.96 1562.42 1061.51 1600.96 1108.88 1600.96L1150.06 1600.96L1150.06 1473.86L1022.96 1473.86Z" />
					</g>
					<g id="&lt;Group&gt;" style="opacity: 0.549">
						<path id="&lt;Path&gt;" class="shp2" d="M1047.91 1500.18L1047.91 1543.84C1047.91 1560.29 1052.4 1575.71 1060.19 1588.87C1036.28 1573.02 1020.48 1545.87 1020.48 1515.04L1020.48 1471.38L1152.56 1471.38L1152.56 1500.18L1047.91 1500.18Z" />
					</g>
					<g id="&lt;Group&gt;">
						<path id="&lt;Compound Path&gt;" fill-rule="evenodd" class="shp0" d="M1152.56 1621.07L1108.88 1621.07C1050.42 1621.07 1002.85 1573.5 1002.85 1515.04L1002.85 1471.36C1002.85 1461.63 1010.74 1453.75 1020.46 1453.75L1152.56 1453.75C1162.29 1453.75 1170.18 1461.63 1170.18 1471.36L1170.18 1603.46C1170.18 1613.19 1162.29 1621.07 1152.56 1621.07ZM1038.08 1488.97L1038.08 1515.04C1038.08 1554.08 1069.84 1585.85 1108.88 1585.85L1134.95 1585.85L1134.95 1488.97L1038.08 1488.97Z" />
					</g>
					<g id="&lt;Group&gt;">
						<path id="&lt;Path&gt;" class="shp0" d="M1082.17 1528.04C1082.17 1520.21 1088.51 1513.87 1096.34 1513.87C1104.16 1513.87 1110.51 1520.21 1110.51 1528.04C1110.51 1535.87 1104.16 1542.21 1096.34 1542.21C1088.51 1542.21 1082.17 1535.87 1082.17 1528.04Z" />
					</g>
					<g id="&lt;Group&gt;">
						<path id="&lt;Path&gt;" class="shp1" d="M2361.11 3026.74L1107.77 3026.74C1072.17 3026.74 1043.32 2997.89 1043.32 2962.29L1043.32 1695.71C1043.32 1660.12 1072.17 1631.26 1107.77 1631.26L2361.11 1631.26C2396.7 1631.26 2425.56 1660.12 2425.56 1695.71L2425.56 2962.29C2425.56 2997.89 2396.7 3026.74 2361.11 3026.74Z" />
						<path id="&lt;Compound Path&gt;" fill-rule="evenodd" class="shp0" d="M2361.11 3029.24L1107.77 3029.24C1070.85 3029.24 1040.81 2999.21 1040.81 2962.29L1040.81 1695.71C1040.81 1658.8 1070.85 1628.76 1107.77 1628.76L2361.11 1628.76C2398.02 1628.76 2428.06 1658.8 2428.06 1695.71L2428.06 2962.29C2428.06 2999.21 2398.02 3029.24 2361.11 3029.24ZM1107.77 1633.76C1073.61 1633.76 1045.81 1661.55 1045.81 1695.71L1045.81 2962.29C1045.81 2996.45 1073.61 3024.24 1107.77 3024.24L2361.11 3024.24C2395.27 3024.24 2423.06 2996.45 2423.06 2962.29L2423.06 1695.71C2423.06 1661.55 2395.27 1633.76 2361.11 1633.76L1107.77 1633.76Z" />
					</g>
					<g id="&lt;Group&gt;" style="opacity: 0.549">
						<path id="&lt;Path&gt;" class="shp2" d="M2419.23 1667.89C2411.28 1664.32 2402.39 1662.35 2393.12 1662.35L1139.78 1662.35C1104.18 1662.35 1075.33 1691.2 1075.33 1726.8L1075.33 2993.39C1075.33 3003.32 1077.58 3012.81 1081.64 3021.2C1059.04 3011.22 1043.3 2988.57 1043.3 2962.29L1043.3 1695.69C1043.3 1660.1 1072.15 1631.25 1107.75 1631.25L2361.09 1631.25C2386.7 1631.25 2408.86 1646.22 2419.23 1667.89Z" />
					</g>
					<g id="&lt;Group&gt;">
						<path id="&lt;Compound Path&gt;" fill-rule="evenodd" class="shp0" d="M2361.11 3044.35L1107.77 3044.35C1062.52 3044.35 1025.7 3007.54 1025.7 2962.29L1025.7 1695.71C1025.7 1650.46 1062.52 1613.65 1107.77 1613.65L2361.11 1613.65C2406.36 1613.65 2443.17 1650.46 2443.17 1695.71L2443.17 2962.29C2443.17 3007.54 2406.36 3044.35 2361.11 3044.35ZM1107.77 1648.87C1081.94 1648.87 1060.93 1669.89 1060.93 1695.71L1060.93 2962.29C1060.93 2988.12 1081.94 3009.13 1107.77 3009.13L2361.11 3009.13C2386.93 3009.13 2407.94 2988.12 2407.94 2962.29L2407.94 1695.71C2407.94 1669.89 2386.93 1648.87 2361.11 1648.87L1107.77 1648.87Z" />
					</g>
					<g id="&lt;Group&gt;">
						<path id="&lt;Path&gt;" class="shp1" d="M2438.81 1745.99L2306.71 1745.99L2306.71 1613.89L2350.39 1613.89C2399.23 1613.89 2438.81 1653.48 2438.81 1702.32L2438.81 1745.99Z" />
						<path id="&lt;Compound Path&gt;" fill-rule="evenodd" class="shp0" d="M2441.31 1748.49L2304.21 1748.49L2304.21 1611.4L2350.39 1611.4C2400.53 1611.4 2441.31 1652.18 2441.31 1702.32L2441.31 1748.49ZM2309.21 1743.49L2436.31 1743.49L2436.31 1702.32C2436.31 1654.94 2397.77 1616.39 2350.39 1616.39L2309.21 1616.39L2309.21 1743.49Z" />
					</g>
					<g id="&lt;Group&gt;" style="opacity: 0.549">
						<path id="&lt;Path&gt;" class="shp2" d="M2423.73 1652.86C2410.67 1645.23 2395.43 1640.84 2379.19 1640.84L2335.53 1640.84L2335.53 1745.99L2306.73 1745.99L2306.73 1613.91L2350.39 1613.91C2380.89 1613.91 2407.82 1629.38 2423.73 1652.86Z" />
					</g>
					<g id="&lt;Group&gt;">
						<path id="&lt;Compound Path&gt;" fill-rule="evenodd" class="shp0" d="M2438.81 1763.6L2326.57 1763.6C2305.91 1763.6 2289.1 1746.8 2289.1 1726.14L2289.1 1613.89C2289.1 1604.17 2296.99 1596.29 2306.71 1596.29L2350.39 1596.29C2408.86 1596.29 2456.43 1643.85 2456.43 1702.32L2456.43 1745.99C2456.43 1755.72 2448.54 1763.6 2438.81 1763.6ZM2324.33 1631.5L2324.33 1726.14C2324.33 1727.37 2325.33 1728.38 2326.57 1728.38L2421.2 1728.38L2421.2 1702.32C2421.2 1663.27 2389.44 1631.5 2350.39 1631.5L2324.33 1631.5Z" />
					</g>
					<g id="&lt;Group&gt;">
						<path id="&lt;Path&gt;" class="shp0" d="M2377.11 1689.31C2377.11 1697.14 2370.76 1703.48 2362.94 1703.48C2355.11 1703.48 2348.77 1697.14 2348.77 1689.31C2348.77 1681.49 2355.11 1675.14 2362.94 1675.14C2370.76 1675.14 2377.11 1681.49 2377.11 1689.31Z" />
					</g>
					<g id="&lt;Group&gt;">
						<path id="&lt;Path&gt;" class="shp1" d="M1020.46 1745.99L1152.56 1745.99L1152.56 1613.89L1108.88 1613.89C1060.05 1613.89 1020.46 1653.48 1020.46 1702.32L1020.46 1745.99Z" />
						<path id="&lt;Compound Path&gt;" fill-rule="evenodd" class="shp0" d="M1155.06 1748.49L1017.96 1748.49L1017.96 1702.32C1017.96 1652.18 1058.75 1611.4 1108.88 1611.4L1155.06 1611.4L1155.06 1748.49ZM1022.96 1743.49L1150.06 1743.49L1150.06 1616.39L1108.88 1616.39C1061.51 1616.39 1022.96 1654.94 1022.96 1702.32L1022.96 1743.49Z" />
					</g>
					<g id="&lt;Group&gt;" style="opacity: 0.549">
						<path id="&lt;Path&gt;" class="shp2" d="M1152.56 1613.91L1152.56 1637.44L1132.87 1637.44C1084.05 1637.44 1044.45 1677.05 1044.45 1725.86L1044.45 1745.99L1020.48 1745.99L1020.48 1702.33C1020.48 1653.46 1060.03 1613.91 1108.9 1613.91L1152.56 1613.91Z" />
					</g>
					<g id="&lt;Group&gt;">
						<path id="&lt;Compound Path&gt;" fill-rule="evenodd" class="shp0" d="M1132.7 1763.6L1020.46 1763.6C1010.74 1763.6 1002.85 1755.72 1002.85 1745.99L1002.85 1702.32C1002.85 1643.85 1050.42 1596.29 1108.88 1596.29L1152.56 1596.29C1162.29 1596.29 1170.18 1604.17 1170.18 1613.89L1170.18 1726.14C1170.18 1746.8 1153.36 1763.6 1132.7 1763.6ZM1038.08 1728.38L1132.7 1728.38C1133.94 1728.38 1134.95 1727.37 1134.95 1726.14L1134.95 1631.5L1108.88 1631.5C1069.84 1631.5 1038.08 1663.27 1038.08 1702.32L1038.08 1728.38Z" />
					</g>
					<g id="&lt;Group&gt;">
						<path id="&lt;Path&gt;" class="shp0" d="M1082.17 1689.31C1082.17 1697.14 1088.51 1703.48 1096.34 1703.48C1104.16 1703.48 1110.51 1697.14 1110.51 1689.31C1110.51 1681.49 1104.16 1675.14 1096.34 1675.14C1088.51 1675.14 1082.17 1681.49 1082.17 1689.31Z" />
					</g>
					<g id="&lt;Group&gt;">
						<path id="&lt;Path&gt;" class="shp1" d="M2438.81 2912.47L2306.71 2912.47L2306.71 3044.57L2350.39 3044.57C2399.23 3044.57 2438.81 3004.98 2438.81 2956.15L2438.81 2912.47Z" />
						<path id="&lt;Compound Path&gt;" fill-rule="evenodd" class="shp0" d="M2350.39 3047.07L2304.21 3047.07L2304.21 2909.97L2441.31 2909.97L2441.31 2956.15C2441.31 3006.28 2400.53 3047.07 2350.39 3047.07ZM2309.21 3042.07L2350.39 3042.07C2397.77 3042.07 2436.31 3003.52 2436.31 2956.15L2436.31 2914.97L2309.21 2914.97L2309.21 3042.07Z" />
					</g>
					<g id="&lt;Group&gt;" style="opacity: 0.549">
						<path id="&lt;Path&gt;" class="shp2" d="M2438.81 2912.49L2438.81 2941.94L2334.16 2941.94L2334.16 3044.57L2306.73 3044.57L2306.73 2912.49L2438.81 2912.49Z" />
					</g>
					<g id="&lt;Group&gt;">
						<path id="&lt;Compound Path&gt;" fill-rule="evenodd" class="shp0" d="M2350.39 3062.18L2306.71 3062.18C2296.99 3062.18 2289.1 3054.3 2289.1 3044.57L2289.1 2935.92C2289.1 2913.28 2307.52 2894.86 2330.17 2894.86L2438.81 2894.86C2448.54 2894.86 2456.43 2902.74 2456.43 2912.47L2456.43 2956.15C2456.43 3014.61 2408.86 3062.18 2350.39 3062.18ZM2324.33 3026.96L2350.39 3026.96C2389.44 3026.96 2421.2 2995.19 2421.2 2956.15L2421.2 2930.08L2330.17 2930.08C2326.94 2930.08 2324.33 2932.7 2324.33 2935.92L2324.33 3026.96Z" />
					</g>
					<g id="&lt;Group&gt;">
						<path id="&lt;Path&gt;" class="shp0" d="M2377.11 2969.15C2377.11 2961.32 2370.76 2954.98 2362.94 2954.98C2355.11 2954.98 2348.77 2961.32 2348.77 2969.15C2348.77 2976.98 2355.11 2983.32 2362.94 2983.32C2370.76 2983.32 2377.11 2976.98 2377.11 2969.15Z" />
					</g>
					<g id="&lt;Group&gt;">
						<path id="&lt;Path&gt;" class="shp1" d="M1020.46 2912.47L1152.56 2912.47L1152.56 3044.57L1108.88 3044.57C1060.05 3044.57 1020.46 3004.98 1020.46 2956.15L1020.46 2912.47Z" />
						<path id="&lt;Compound Path&gt;" fill-rule="evenodd" class="shp0" d="M1155.06 3047.07L1108.88 3047.07C1058.75 3047.07 1017.96 3006.28 1017.96 2956.15L1017.96 2909.97L1155.06 2909.97L1155.06 3047.07ZM1022.96 2914.97L1022.96 2956.15C1022.96 3003.52 1061.51 3042.07 1108.88 3042.07L1150.06 3042.07L1150.06 2914.97L1022.96 2914.97Z" />
					</g>
					<g id="&lt;Group&gt;" style="opacity: 0.549">
						<path id="&lt;Path&gt;" class="shp2" d="M1047.91 2941.29L1047.91 2984.95C1047.91 3001.4 1052.4 3016.82 1060.19 3029.98C1036.28 3014.13 1020.48 2986.98 1020.48 2956.15L1020.48 2912.49L1152.56 2912.49L1152.56 2941.29L1047.91 2941.29Z" />
					</g>
					<g id="&lt;Group&gt;">
						<path id="&lt;Compound Path&gt;" fill-rule="evenodd" class="shp0" d="M1152.56 3062.18L1108.88 3062.18C1050.42 3062.18 1002.85 3014.61 1002.85 2956.15L1002.85 2912.47C1002.85 2902.74 1010.74 2894.86 1020.46 2894.86L1129.11 2894.86C1151.75 2894.86 1170.18 2913.28 1170.18 2935.92L1170.18 3044.57C1170.18 3054.3 1162.29 3062.18 1152.56 3062.18ZM1038.08 2930.08L1038.08 2956.15C1038.08 2995.19 1069.84 3026.96 1108.88 3026.96L1134.95 3026.96L1134.95 2935.92C1134.95 2932.7 1132.33 2930.08 1129.11 2930.08L1038.08 2930.08Z" />
					</g>
					<g id="&lt;Group&gt;">
						<path id="&lt;Path&gt;" class="shp0" d="M1082.17 2969.15C1082.17 2961.32 1088.51 2954.98 1096.34 2954.98C1104.16 2954.98 1110.51 2961.32 1110.51 2969.15C1110.51 2976.98 1104.16 2983.32 1096.34 2983.32C1088.51 2983.32 1082.17 2976.98 1082.17 2969.15Z" />
					</g>
					<g id="&lt;Group&gt;">
						<path id="&lt;Path&gt;" class="shp0" d="M2309.46 1635.48L1149.82 1635.48L1149.82 1588.87L2309.46 1588.87L2309.46 1635.48Z" />
					</g>
					<g id="&lt;Group&gt;" style="opacity: 0.549">
						<path id="&lt;Path&gt;" class="shp2" d="M2304.68 1939.32L2304.68 2814.69C2304.68 2870.14 2259.71 2915.12 2204.25 2915.12L1328.89 2915.12C1288.41 2915.12 1253.52 2891.15 1237.67 2856.65C1254.46 2869.21 1275.24 2876.61 1297.79 2876.61L2173.15 2876.61C2228.61 2876.61 2273.58 2831.69 2273.58 2776.18L2273.58 1900.87C2273.58 1885.84 2270.29 1871.64 2264.37 1858.86C2288.83 1877.18 2304.68 1906.41 2304.68 1939.32Z" />
					</g>
					<g id="&lt;Group&gt;">
						<path id="&lt;Compound Path&gt;" fill-rule="evenodd" class="shp0" d="M2169.04 2899.05L1293.69 2899.05C1228.6 2899.05 1175.65 2846.09 1175.65 2781L1175.65 1905.66C1175.65 1840.57 1228.6 1787.62 1293.69 1787.62L2169.04 1787.62C2234.13 1787.62 2287.08 1840.57 2287.08 1905.66L2287.08 2781C2287.08 2846.09 2234.13 2899.05 2169.04 2899.05ZM1293.69 1822.84C1248.02 1822.84 1210.87 1859.99 1210.87 1905.66L1210.87 2781C1210.87 2826.67 1248.02 2863.82 1293.69 2863.82L2169.04 2863.82C2214.71 2863.82 2251.86 2826.67 2251.86 2781L2251.86 1905.66C2251.86 1859.99 2214.71 1822.84 2169.04 1822.84L1293.69 1822.84Z" />
					</g>
					<g id="&lt;Group&gt;" style="opacity: 0.302">
						<path id="&lt;Path&gt;" class="shp0" d="M2169.04 2881.43L1293.69 2881.43C1238.23 2881.43 1193.26 2836.47 1193.26 2781.01L1193.26 1905.66C1193.26 1850.19 1238.23 1805.23 1293.69 1805.23L2169.04 1805.23C2224.51 1805.23 2269.47 1850.19 2269.47 1905.66L2269.47 2781.01C2269.47 2836.47 2224.51 2881.43 2169.04 2881.43Z" />
					</g>
					<g id="&lt;Group&gt;">
						<path id="&lt;Path&gt;" class="shp0" d="M1278.85 2889.66C1274.3 2889.66 1270.62 2885.98 1270.62 2881.43L1270.62 1805.23C1270.62 1800.68 1274.3 1797 1278.85 1797C1283.39 1797 1287.07 1800.68 1287.07 1805.23L1287.07 2881.43C1287.07 2885.98 1283.39 2889.66 1278.85 2889.66Z" />
					</g>
					<g id="&lt;Group&gt;">
						<path id="&lt;Path&gt;" class="shp0" d="M1361.12 2889.66C1356.58 2889.66 1352.9 2885.98 1352.9 2881.43L1352.9 1805.23C1352.9 1800.68 1356.58 1797 1361.12 1797C1365.67 1797 1369.35 1800.68 1369.35 1805.23L1369.35 2881.43C1369.35 2885.98 1365.67 2889.66 1361.12 2889.66Z" />
					</g>
					<g id="&lt;Group&gt;">
						<path id="&lt;Path&gt;" class="shp0" d="M1443.4 2889.66C1438.85 2889.66 1435.17 2885.98 1435.17 2881.43L1435.17 1805.23C1435.17 1800.68 1438.85 1797 1443.4 1797C1447.94 1797 1451.63 1800.68 1451.63 1805.23L1451.63 2881.43C1451.63 2885.98 1447.94 2889.66 1443.4 2889.66Z" />
					</g>
					<g id="&lt;Group&gt;">
						<path id="&lt;Path&gt;" class="shp0" d="M1525.68 2889.66C1521.13 2889.66 1517.45 2885.98 1517.45 2881.43L1517.45 1805.23C1517.45 1800.68 1521.13 1797 1525.68 1797C1530.22 1797 1533.91 1800.68 1533.91 1805.23L1533.91 2881.43C1533.91 2885.98 1530.22 2889.66 1525.68 2889.66Z" />
					</g>
					<g id="&lt;Group&gt;">
						<path id="&lt;Path&gt;" class="shp0" d="M1607.95 2889.66C1603.41 2889.66 1599.73 2885.98 1599.73 2881.43L1599.73 1805.23C1599.73 1800.68 1603.41 1797 1607.95 1797C1612.5 1797 1616.18 1800.68 1616.18 1805.23L1616.18 2881.43C1616.18 2885.98 1612.5 2889.66 1607.95 2889.66Z" />
					</g>
					<g id="&lt;Group&gt;">
						<path id="&lt;Path&gt;" class="shp0" d="M1690.23 2889.66C1685.68 2889.66 1682 2885.98 1682 2881.43L1682 1805.23C1682 1800.68 1685.68 1797 1690.23 1797C1694.77 1797 1698.46 1800.68 1698.46 1805.23L1698.46 2881.43C1698.46 2885.98 1694.77 2889.66 1690.23 2889.66Z" />
					</g>
					<g id="&lt;Group&gt;">
						<path id="&lt;Path&gt;" class="shp0" d="M1772.5 2889.66C1767.96 2889.66 1764.28 2885.98 1764.28 2881.43L1764.28 1805.23C1764.28 1800.68 1767.96 1797 1772.5 1797C1777.05 1797 1780.73 1800.68 1780.73 1805.23L1780.73 2881.43C1780.73 2885.98 1777.05 2889.66 1772.5 2889.66Z" />
					</g>
					<g id="&lt;Group&gt;">
						<path id="&lt;Path&gt;" class="shp0" d="M1854.78 2889.66C1850.23 2889.66 1846.55 2885.98 1846.55 2881.43L1846.55 1805.23C1846.55 1800.68 1850.23 1797 1854.78 1797C1859.33 1797 1863.01 1800.68 1863.01 1805.23L1863.01 2881.43C1863.01 2885.98 1859.33 2889.66 1854.78 2889.66Z" />
					</g>
					<g id="&lt;Group&gt;">
						<path id="&lt;Path&gt;" class="shp0" d="M1937.06 2889.66C1932.51 2889.66 1928.83 2885.98 1928.83 2881.43L1928.83 1805.23C1928.83 1800.68 1932.51 1797 1937.06 1797C1941.6 1797 1945.28 1800.68 1945.28 1805.23L1945.28 2881.43C1945.28 2885.98 1941.6 2889.66 1937.06 2889.66Z" />
					</g>
					<g id="&lt;Group&gt;">
						<path id="&lt;Path&gt;" class="shp0" d="M2019.34 2889.66C2014.79 2889.66 2011.11 2885.98 2011.11 2881.43L2011.11 1805.23C2011.11 1800.68 2014.79 1797 2019.34 1797C2023.88 1797 2027.56 1800.68 2027.56 1805.23L2027.56 2881.43C2027.56 2885.98 2023.88 2889.66 2019.34 2889.66Z" />
					</g>
					<g id="&lt;Group&gt;">
						<path id="&lt;Path&gt;" class="shp0" d="M2101.61 2889.66C2097.06 2889.66 2093.38 2885.98 2093.38 2881.43L2093.38 1805.23C2093.38 1800.68 2097.06 1797 2101.61 1797C2106.16 1797 2109.84 1800.68 2109.84 1805.23L2109.84 2881.43C2109.84 2885.98 2106.16 2889.66 2101.61 2889.66Z" />
					</g>
					<g id="&lt;Group&gt;">
						<path id="&lt;Path&gt;" class="shp0" d="M2183.89 2889.66C2179.34 2889.66 2175.66 2885.98 2175.66 2881.43L2175.66 1805.23C2175.66 1800.68 2179.34 1797 2183.89 1797C2188.43 1797 2192.11 1800.68 2192.11 1805.23L2192.11 2881.43C2192.11 2885.98 2188.43 2889.66 2183.89 2889.66Z" />
					</g>
					<g id="&lt;Group&gt;">
						<path id="&lt;Path&gt;" class="shp0" d="M2269.47 1899.04L1193.26 1899.04C1188.72 1899.04 1185.03 1895.35 1185.03 1890.81C1185.03 1886.27 1188.72 1882.58 1193.26 1882.58L2269.47 1882.58C2274.02 1882.58 2277.7 1886.27 2277.7 1890.81C2277.7 1895.35 2274.02 1899.04 2269.47 1899.04Z" />
					</g>
					<g id="&lt;Group&gt;">
						<path id="&lt;Path&gt;" class="shp0" d="M2269.47 1981.31L1193.26 1981.31C1188.72 1981.31 1185.03 1977.63 1185.03 1973.09C1185.03 1968.54 1188.72 1964.86 1193.26 1964.86L2269.47 1964.86C2274.02 1964.86 2277.7 1968.54 2277.7 1973.09C2277.7 1977.63 2274.02 1981.31 2269.47 1981.31Z" />
					</g>
					<g id="&lt;Group&gt;">
						<path id="&lt;Path&gt;" class="shp0" d="M2269.47 2063.59L1193.26 2063.59C1188.72 2063.59 1185.03 2059.91 1185.03 2055.36C1185.03 2050.82 1188.72 2047.14 1193.26 2047.14L2269.47 2047.14C2274.02 2047.14 2277.7 2050.82 2277.7 2055.36C2277.7 2059.91 2274.02 2063.59 2269.47 2063.59Z" />
					</g>
					<g id="&lt;Group&gt;">
						<path id="&lt;Path&gt;" class="shp0" d="M2269.47 2145.87L1193.26 2145.87C1188.72 2145.87 1185.03 2142.19 1185.03 2137.64C1185.03 2133.09 1188.72 2129.41 1193.26 2129.41L2269.47 2129.41C2274.02 2129.41 2277.7 2133.09 2277.7 2137.64C2277.7 2142.19 2274.02 2145.87 2269.47 2145.87Z" />
					</g>
					<g id="&lt;Group&gt;">
						<path id="&lt;Path&gt;" class="shp0" d="M2269.47 2228.14L1193.26 2228.14C1188.72 2228.14 1185.03 2224.46 1185.03 2219.92C1185.03 2215.37 1188.72 2211.69 1193.26 2211.69L2269.47 2211.69C2274.02 2211.69 2277.7 2215.37 2277.7 2219.92C2277.7 2224.46 2274.02 2228.14 2269.47 2228.14Z" />
					</g>
					<g id="&lt;Group&gt;">
						<path id="&lt;Path&gt;" class="shp0" d="M2269.47 2310.42L1193.26 2310.42C1188.72 2310.42 1185.03 2306.74 1185.03 2302.19C1185.03 2297.65 1188.72 2293.96 1193.26 2293.96L2269.47 2293.96C2274.02 2293.96 2277.7 2297.65 2277.7 2302.19C2277.7 2306.74 2274.02 2310.42 2269.47 2310.42Z" />
					</g>
					<g id="&lt;Group&gt;">
						<path id="&lt;Path&gt;" class="shp0" d="M2269.47 2392.7L1193.26 2392.7C1188.72 2392.7 1185.03 2389.02 1185.03 2384.47C1185.03 2379.93 1188.72 2376.24 1193.26 2376.24L2269.47 2376.24C2274.02 2376.24 2277.7 2379.93 2277.7 2384.47C2277.7 2389.02 2274.02 2392.7 2269.47 2392.7Z" />
					</g>
					<g id="&lt;Group&gt;">
						<path id="&lt;Path&gt;" class="shp0" d="M2269.47 2474.97L1193.26 2474.97C1188.72 2474.97 1185.03 2471.29 1185.03 2466.75C1185.03 2462.2 1188.72 2458.52 1193.26 2458.52L2269.47 2458.52C2274.02 2458.52 2277.7 2462.2 2277.7 2466.75C2277.7 2471.29 2274.02 2474.97 2269.47 2474.97Z" />
					</g>
					<g id="&lt;Group&gt;">
						<path id="&lt;Path&gt;" class="shp0" d="M2269.47 2557.25L1193.26 2557.25C1188.72 2557.25 1185.03 2553.57 1185.03 2549.02C1185.03 2544.48 1188.72 2540.79 1193.26 2540.79L2269.47 2540.79C2274.02 2540.79 2277.7 2544.48 2277.7 2549.02C2277.7 2553.57 2274.02 2557.25 2269.47 2557.25Z" />
					</g>
					<g id="&lt;Group&gt;">
						<path id="&lt;Path&gt;" class="shp0" d="M2269.47 2639.52L1193.26 2639.52C1188.72 2639.52 1185.03 2635.84 1185.03 2631.3C1185.03 2626.75 1188.72 2623.07 1193.26 2623.07L2269.47 2623.07C2274.02 2623.07 2277.7 2626.75 2277.7 2631.3C2277.7 2635.84 2274.02 2639.52 2269.47 2639.52Z" />
					</g>
					<g id="&lt;Group&gt;">
						<path id="&lt;Path&gt;" class="shp0" d="M2269.47 2721.8L1193.26 2721.8C1188.72 2721.8 1185.03 2718.12 1185.03 2713.57C1185.03 2709.03 1188.72 2705.35 1193.26 2705.35L2269.47 2705.35C2274.02 2705.35 2277.7 2709.03 2277.7 2713.57C2277.7 2718.12 2274.02 2721.8 2269.47 2721.8Z" />
					</g>
					<g id="&lt;Group&gt;">
						<path id="&lt;Path&gt;" class="shp0" d="M2269.47 2804.08L1193.26 2804.08C1188.72 2804.08 1185.03 2800.39 1185.03 2795.85C1185.03 2791.3 1188.72 2787.62 1193.26 2787.62L2269.47 2787.62C2274.02 2787.62 2277.7 2791.3 2277.7 2795.85C2277.7 2800.39 2274.02 2804.08 2269.47 2804.08Z" />
					</g>
					<g id="&lt;Group&gt;">
						<path id="&lt;Path&gt;" class="shp3" d="M2228.99 1426.58L1230.28 1426.58C1208.88 1426.58 1191.53 1409.23 1191.53 1387.83L1191.53 1191.85C1191.53 1170.45 1208.88 1153.11 1230.28 1153.11L2228.99 1153.11C2250.39 1153.11 2267.74 1170.45 2267.74 1191.85L2267.74 1387.83C2267.74 1409.23 2250.39 1426.58 2228.99 1426.58Z" />
					</g>
					<g id="&lt;Group&gt;" style="opacity: 0.4">
						<path id="&lt;Path&gt;" class="shp4" d="M2267.6 1189.71C2267.11 1189.6 2266.56 1189.6 2266.01 1189.6L1267.29 1189.6C1245.9 1189.6 1228.57 1206.93 1228.57 1228.38L1228.57 1424.31C1228.57 1425.02 1228.57 1425.73 1228.68 1426.45C1208 1425.68 1191.54 1408.67 1191.54 1387.83L1191.54 1191.85C1191.54 1170.46 1208.87 1153.12 1230.27 1153.12L2228.99 1153.12C2249.67 1153.12 2266.56 1169.31 2267.6 1189.71Z" />
						<path id="&lt;Compound Path&gt;" fill-rule="evenodd" class="shp0" d="M1231.62 1429.06L1228.58 1428.94C1206.41 1428.12 1189.04 1410.06 1189.04 1387.83L1189.04 1191.85C1189.04 1169.12 1207.54 1150.63 1230.27 1150.63L2228.99 1150.63C2250.93 1150.63 2268.98 1167.74 2270.1 1189.58L2270.27 1192.86L2267.06 1192.15C2266.84 1192.1 2266.4 1192.1 2266.02 1192.1L1267.29 1192.1C1247.31 1192.1 1231.06 1208.37 1231.06 1228.38L1231.06 1424.31C1231.06 1424.89 1231.05 1425.47 1231.15 1426.06L1231.62 1429.06ZM1230.27 1155.63C1210.29 1155.63 1194.04 1171.88 1194.04 1191.85L1194.04 1387.83C1194.04 1406.45 1207.9 1421.73 1226.06 1423.75L1226.06 1228.38C1226.06 1205.62 1244.56 1187.1 1267.29 1187.1L2264.87 1187.1C2262.59 1169.24 2247.33 1155.63 2228.99 1155.63L1230.27 1155.63Z" />
					</g>
					<g id="&lt;Group&gt;" style="opacity: 0.549">
						<path id="&lt;Path&gt;" class="shp2" d="M2295.14 1227.5L2295.14 1423.48C2295.14 1444.88 2277.81 1462.21 2256.42 1462.21L1257.69 1462.21C1236.74 1462.21 1219.73 1445.64 1219.02 1424.86C1222.59 1425.95 1226.37 1426.56 1230.27 1426.56L2228.99 1426.56C2250.38 1426.56 2267.71 1409.22 2267.71 1387.83L2267.71 1191.85C2267.71 1191.41 2267.71 1190.92 2267.66 1190.48C2283.57 1195.25 2295.14 1210.01 2295.14 1227.5Z" />
					</g>
					<g id="&lt;Group&gt;">
						<path id="&lt;Compound Path&gt;" fill-rule="evenodd" class="shp0" d="M2228.99 1444.19L1230.28 1444.19C1199.2 1444.19 1173.92 1418.91 1173.92 1387.83L1173.92 1191.85C1173.92 1160.78 1199.2 1135.5 1230.28 1135.5L2228.99 1135.5C2260.07 1135.5 2285.35 1160.78 2285.35 1191.85L2285.35 1387.83C2285.35 1418.91 2260.07 1444.19 2228.99 1444.19ZM1230.28 1170.72C1218.63 1170.72 1209.14 1180.2 1209.14 1191.85L1209.14 1387.83C1209.14 1399.49 1218.63 1408.97 1230.28 1408.97L2228.99 1408.97C2240.65 1408.97 2250.13 1399.49 2250.13 1387.83L2250.13 1191.85C2250.13 1180.2 2240.65 1170.72 2228.99 1170.72L1230.28 1170.72Z" />
					</g>
					<g id="&lt;Group&gt;" style="opacity: 0.4">
						<path id="&lt;Path&gt;" class="shp0" d="M1407.65 1326.34C1407.65 1356.1 1383.53 1380.22 1353.77 1380.22C1324.02 1380.22 1299.9 1356.1 1299.9 1326.34C1299.9 1296.59 1324.02 1272.47 1353.77 1272.47C1383.53 1272.47 1407.65 1296.59 1407.65 1326.34Z" />
					</g>
					<g id="&lt;Group&gt;" style="opacity: 0.4">
						<path id="&lt;Path&gt;" class="shp0" d="M1565.8 1326.34C1565.8 1356.1 1541.68 1380.22 1511.93 1380.22C1482.17 1380.22 1458.05 1356.1 1458.05 1326.34C1458.05 1296.59 1482.17 1272.47 1511.93 1272.47C1541.68 1272.47 1565.8 1296.59 1565.8 1326.34Z" />
					</g>
					<g id="&lt;Group&gt;" style="opacity: 0.4">
						<path id="&lt;Path&gt;" class="shp0" d="M1718.47 1326.34C1718.47 1356.1 1694.35 1380.22 1664.6 1380.22C1634.84 1380.22 1610.72 1356.1 1610.72 1326.34C1610.72 1296.59 1634.84 1272.47 1664.6 1272.47C1694.35 1272.47 1718.47 1296.59 1718.47 1326.34Z" />
					</g>
					<g id="&lt;Group&gt;" style="opacity: 0.4">
						<path id="&lt;Path&gt;" class="shp0" d="M1968.95 1326.34C1968.95 1356.1 1944.83 1380.22 1915.08 1380.22C1885.33 1380.22 1861.21 1356.1 1861.21 1326.34C1861.21 1296.59 1885.33 1272.47 1915.08 1272.47C1944.83 1272.47 1968.95 1296.59 1968.95 1326.34Z" />
					</g>
					<g id="&lt;Group&gt;">
						<path id="&lt;Path&gt;" class="shp5" d="M1379.6 1289.84C1379.6 1311.85 1361.76 1329.69 1339.75 1329.69C1317.74 1329.69 1299.9 1311.85 1299.9 1289.84C1299.9 1267.84 1317.74 1249.99 1339.75 1249.99C1361.76 1249.99 1379.6 1267.84 1379.6 1289.84Z" />
					</g>
					<g id="&lt;Group&gt;">
						<path id="&lt;Compound Path&gt;" fill-rule="evenodd" class="shp0" d="M1339.75 1343.4C1310.21 1343.4 1286.19 1319.38 1286.19 1289.84C1286.19 1260.31 1310.21 1236.28 1339.75 1236.28C1369.28 1236.28 1393.31 1260.31 1393.31 1289.84C1393.31 1319.38 1369.28 1343.4 1339.75 1343.4ZM1339.75 1263.71C1325.34 1263.71 1313.61 1275.43 1313.61 1289.84C1313.61 1304.25 1325.34 1315.98 1339.75 1315.98C1354.16 1315.98 1365.88 1304.25 1365.88 1289.84C1365.88 1275.43 1354.16 1263.71 1339.75 1263.71Z" />
					</g>
					<g id="&lt;Group&gt;">
						<path id="&lt;Path&gt;" class="shp5" d="M1531.81 1289.84C1531.81 1311.85 1513.97 1329.69 1491.96 1329.69C1469.95 1329.69 1452.11 1311.85 1452.11 1289.84C1452.11 1267.84 1469.95 1249.99 1491.96 1249.99C1513.97 1249.99 1531.81 1267.84 1531.81 1289.84Z" />
					</g>
					<g id="&lt;Group&gt;">
						<path id="&lt;Compound Path&gt;" fill-rule="evenodd" class="shp0" d="M1491.96 1343.4C1462.43 1343.4 1438.4 1319.38 1438.4 1289.84C1438.4 1260.31 1462.43 1236.28 1491.96 1236.28C1521.49 1236.28 1545.52 1260.31 1545.52 1289.84C1545.52 1319.38 1521.49 1343.4 1491.96 1343.4ZM1491.96 1263.71C1477.55 1263.71 1465.82 1275.43 1465.82 1289.84C1465.82 1304.25 1477.55 1315.98 1491.96 1315.98C1506.37 1315.98 1518.1 1304.25 1518.1 1289.84C1518.1 1275.43 1506.37 1263.71 1491.96 1263.71Z" />
					</g>
					<g id="&lt;Group&gt;">
						<path id="&lt;Path&gt;" class="shp5" d="M1682.65 1289.84C1682.65 1311.85 1664.81 1329.69 1642.8 1329.69C1620.79 1329.69 1602.95 1311.85 1602.95 1289.84C1602.95 1267.84 1620.79 1249.99 1642.8 1249.99C1664.81 1249.99 1682.65 1267.84 1682.65 1289.84Z" />
					</g>
					<g id="&lt;Group&gt;">
						<path id="&lt;Compound Path&gt;" fill-rule="evenodd" class="shp0" d="M1642.8 1343.4C1613.27 1343.4 1589.24 1319.38 1589.24 1289.84C1589.24 1260.31 1613.27 1236.28 1642.8 1236.28C1672.33 1236.28 1696.36 1260.31 1696.36 1289.84C1696.36 1319.38 1672.33 1343.4 1642.8 1343.4ZM1642.8 1263.71C1628.39 1263.71 1616.66 1275.43 1616.66 1289.84C1616.66 1304.25 1628.39 1315.98 1642.8 1315.98C1657.21 1315.98 1668.93 1304.25 1668.93 1289.84C1668.93 1275.43 1657.21 1263.71 1642.8 1263.71Z" />
					</g>
					<g id="&lt;Group&gt;">
						<path id="&lt;Path&gt;" class="shp6" d="M1934.48 1289.84C1934.48 1311.85 1916.64 1329.69 1894.63 1329.69C1872.62 1329.69 1854.78 1311.85 1854.78 1289.84C1854.78 1267.84 1872.62 1249.99 1894.63 1249.99C1916.64 1249.99 1934.48 1267.84 1934.48 1289.84Z" />
					</g>
					<g id="&lt;Group&gt;">
						<path id="&lt;Compound Path&gt;" fill-rule="evenodd" class="shp0" d="M1894.63 1343.4C1865.09 1343.4 1841.07 1319.38 1841.07 1289.84C1841.07 1260.31 1865.09 1236.28 1894.63 1236.28C1924.16 1236.28 1948.19 1260.31 1948.19 1289.84C1948.19 1319.38 1924.16 1343.4 1894.63 1343.4ZM1894.63 1263.71C1880.22 1263.71 1868.49 1275.43 1868.49 1289.84C1868.49 1304.25 1880.22 1315.98 1894.63 1315.98C1909.04 1315.98 1920.77 1304.25 1920.77 1289.84C1920.77 1275.43 1909.04 1263.71 1894.63 1263.71Z" />
					</g>
					<g id="&lt;Group&gt;">
						<path id="&lt;Path&gt;" class="shp6" d="M1786.33 1266.61L1757.07 1266.61C1749.25 1266.61 1742.9 1260.27 1742.9 1252.44L1742.9 1243.76C1742.9 1235.93 1749.25 1229.59 1757.07 1229.59L1786.33 1229.59C1794.15 1229.59 1800.5 1235.93 1800.5 1243.76L1800.5 1252.44C1800.5 1260.27 1794.15 1266.61 1786.33 1266.61Z" />
					</g>
					<g id="&lt;Group&gt;">
						<path id="&lt;Path&gt;" class="shp0" d="M1786.33 1330.08L1757.07 1330.08C1749.25 1330.08 1742.9 1323.74 1742.9 1315.91L1742.9 1307.23C1742.9 1299.4 1749.25 1293.06 1757.07 1293.06L1786.33 1293.06C1794.15 1293.06 1800.5 1299.4 1800.5 1307.23L1800.5 1315.91C1800.5 1323.74 1794.15 1330.08 1786.33 1330.08Z" />
					</g>
					<g id="&lt;Group&gt;">
						<path id="&lt;Path&gt;" class="shp0" d="M2125.83 1347.17C2125.83 1356.83 2118 1364.66 2108.35 1364.66C2098.69 1364.66 2090.86 1356.83 2090.86 1347.17C2090.86 1337.52 2098.69 1329.69 2108.35 1329.69C2118 1329.69 2125.83 1337.52 2125.83 1347.17Z" />
					</g>
					<g id="&lt;Group&gt;">
						<path id="&lt;Path&gt;" class="shp0" d="M2194.39 1347.17C2194.39 1356.83 2186.57 1364.66 2176.91 1364.66C2167.25 1364.66 2159.43 1356.83 2159.43 1347.17C2159.43 1337.52 2167.25 1329.69 2176.91 1329.69C2186.57 1329.69 2194.39 1337.52 2194.39 1347.17Z" />
					</g>
				</g>
				<g id="&lt;Group&gt;">
					<g id="&lt;Group&gt;">
						<path id="&lt;Path&gt;" class="shp1" d="M958.53 1964.94C904.09 1950.59 883.77 1917 894.79 1833.62L1112.12 553.72C1133.39 503.58 1171.58 477.6 1209.08 469.6C1223.03 466.62 1232.71 453.99 1232.29 439.75L1226.81 258.36C1225.8 224.79 1242.47 193.55 1270.07 174.43C1324.41 136.78 1317.25 75.39 1273.18 52.12L1261.98 47.27L1209.15 24.6C1218.45 29.16 1226.27 35.44 1232.24 42.78C1255.8 71.61 1252.04 117.61 1208.11 148.04C1180.51 167.16 1163.79 198.4 1164.85 231.97L1170.28 413.36C1170.75 427.6 1161.07 440.28 1147.12 443.2C1109.57 451.21 1071.43 477.18 1050.16 527.33L1047 546.08L838.96 1809.62L822.34 1905.5C838.28 1940.92 883.67 1960.74 958.53 1964.94Z" />
						<path id="&lt;Compound Path&gt;" fill-rule="evenodd" class="shp0" d="M983.06 1968.82L958.39 1967.44C845.88 1961.12 821.06 1908.75 820.06 1906.53L819.75 1905.83L836.5 1809.19L1044.54 545.67L1047.86 526.36C1074.04 464.61 1120.96 446.22 1146.6 440.76C1159.32 438.1 1168.22 426.61 1167.78 413.44L1162.35 232.04C1161.28 198.13 1177.86 165.95 1206.68 145.98C1227.5 131.56 1240.56 112.27 1243.46 91.66C1245.88 74.5 1241.21 57.7 1230.31 44.36C1224.46 37.17 1216.76 31.12 1208.05 26.84L1210.14 22.3L1274.17 49.83C1295.85 61.26 1309.53 81.97 1310.93 105.31C1312.53 132.07 1298.16 158.01 1271.5 176.48C1244.12 195.45 1228.34 226.03 1229.31 258.28L1234.79 439.67C1235.25 455.22 1224.65 468.83 1209.61 472.04C1184.95 477.3 1139.84 495.01 1114.54 554.43L897.26 1834.04C886.82 1913.02 903.59 1947.87 959.17 1962.53L983.06 1968.82ZM824.95 1905.11C827.94 1910.66 852.38 1950.53 938.34 1960.69C895.89 1942.21 882.9 1904.54 892.31 1833.3L1109.71 553.02L1109.82 552.75C1128.93 507.66 1164.93 476.46 1208.56 467.15C1221.25 464.44 1230.18 452.95 1229.79 439.82L1224.31 258.43C1223.3 224.48 1239.87 192.31 1268.65 172.37C1293.85 154.92 1307.44 130.58 1305.94 105.61C1304.64 84.03 1291.96 64.86 1272.01 54.33L1229.54 36.07C1231.18 37.71 1232.73 39.42 1234.18 41.2C1245.97 55.63 1251.03 73.8 1248.41 92.36C1245.32 114.37 1231.51 134.87 1209.54 150.09C1182.1 169.09 1166.33 199.67 1167.35 231.89L1172.78 413.28C1173.3 428.88 1162.72 442.49 1147.64 445.65C1122.99 450.9 1077.89 468.6 1052.58 528.04L1049.47 546.5L841.43 1810.02L824.95 1905.11Z" />
					</g>
					<g id="&lt;Group&gt;" style="opacity: 0.302">
						<path id="&lt;Path&gt;" class="shp0" d="M1237.98 191.41C1210.39 210.56 1193.73 241.77 1194.74 275.37L1200.23 456.73C1200.38 462.71 1198.8 468.41 1195.82 473.23C1183.68 477.23 1171.65 483.19 1160.38 491.36C1128.6 502.82 1098.16 527.99 1080.02 570.73L862.71 1850.65C856.83 1895.16 859.87 1925.48 872.26 1946.25C845.95 1934.54 829.32 1920.95 822.36 1905.49L838.98 1809.63L1046.99 546.08L1050.14 527.35C1061.98 499.42 1079.08 478.97 1098.4 464.97C1109.67 456.8 1121.7 450.79 1133.89 446.79C1138.3 445.33 1142.69 444.17 1147.11 443.22C1161.09 440.29 1170.75 427.61 1170.3 413.34L1164.87 231.98C1163.8 198.38 1180.52 167.18 1208.1 148.02C1239.15 126.54 1250.13 97.26 1245.57 71.75C1285.59 96.67 1290.41 155.12 1237.98 191.41Z" />
					</g>
					<g id="&lt;Group&gt;">
						<path id="&lt;Path&gt;" class="shp6" d="M694.59 3066.86C652.22 3065.83 609.12 3062.15 566.61 3055.51C565.92 3055.41 565.22 3055.32 564.48 3055.22C547.17 3052.46 529.9 3049.25 512.86 3045.51C300.38 2999.15 114.39 2874.09 108.5 2629C105.97 2522.7 139.56 2418.86 199.83 2331.23C288.29 2202.58 396.71 2095.56 342.01 1955.61C294.17 1817.92 311.91 1683.5 353.52 1582.75C380.7 1522.27 418.67 1494.04 448.64 1493.23C481.22 1492.3 504.33 1523.76 493.76 1581.48C489.6 1604.01 489.6 1627.26 495.75 1649.32C521.26 1740.77 615.3 1794.5 712.19 1715.18L806.85 1784.99C766.58 1980.79 1005.12 2038.4 1062.02 1863.05C1069.26 1840.98 1089.08 1824.77 1112.27 1825.01C1182.82 1825.76 1213.49 1952.74 1115.02 2103.66C1030.01 2223.37 1006.39 2359.45 1094.63 2525.49C1117.3 2567.95 1130.75 2614.2 1134.98 2661.23C1152.88 2860.11 1006 3072.56 694.59 3066.86Z" />
					</g>
					<g id="&lt;Group&gt;" style="opacity: 0.549">
						<path id="&lt;Path&gt;" class="shp2" d="M662.31 3064C630.53 3062.68 598.49 3059.89 566.61 3055.51C565.92 3055.41 565.22 3055.32 564.48 3055.22C547.17 3052.46 529.9 3049.25 512.86 3045.51C300.38 2999.15 114.39 2874.09 108.5 2629C105.97 2522.7 139.56 2418.86 199.83 2331.23C288.29 2202.58 396.71 2095.56 342.01 1955.61C294.17 1817.92 311.91 1683.5 353.52 1582.75C380.7 1522.27 418.67 1494.04 448.64 1493.23C454.81 1495.35 460.33 1498.98 465.01 1503.95C442.02 1516.5 418.01 1542.91 399.18 1584.79C373.3 1647.46 356.63 1723.07 359.31 1804.48C401.7 1807.66 413.59 1886.17 371.14 1899.12C375.35 1918.55 380.86 1938.11 387.67 1957.71C442.43 2097.61 333.96 2204.68 245.55 2333.27C185.28 2420.91 151.64 2524.75 154.21 2631.1C161.09 2915.44 410.51 3038.33 662.31 3064Z" />
					</g>
					<g id="&lt;Group&gt;" style="opacity: 0.4">
						<path id="&lt;Path&gt;" class="shp7" d="M1077.44 2891.5C1084 2881.51 1090.04 2871.24 1095.54 2860.75C1090.04 2871.24 1084.05 2881.51 1077.44 2891.5Z" />
						<path id="&lt;Path&gt;" class="shp0" d="M1079.53 2892.88L1075.36 2890.13C1081.85 2880.22 1087.9 2869.94 1093.32 2859.58L1097.76 2861.91C1092.07 2872.76 1085.94 2883.18 1079.54 2892.87C1079.54 2892.87 1079.54 2892.87 1079.54 2892.87L1079.53 2892.88Z" />
					</g>
					<g id="&lt;Group&gt;">
						<path id="&lt;Compound Path&gt;" fill-rule="evenodd" class="shp0" d="M706.86 3083.06C702.69 3083.06 698.52 3083.03 694.31 3082.95C408.4 3075.75 100.24 2952.82 92.48 2629.4C89.89 2521.71 122.45 2415.45 186.63 2322.12C200.96 2301.28 215.86 2280.92 230.28 2261.23C305.15 2159 369.8 2070.72 327.06 1961.48C326.99 1961.29 326.91 1961.09 326.85 1960.9C268.45 1792.78 309.21 1647.96 338.7 1576.6C375.83 1493.85 431.63 1468.47 467.86 1479.75C495.68 1488.4 521.24 1520.43 509.53 1584.37C505.53 1606.19 506.11 1626.6 511.25 1645.03C523.46 1688.83 552.34 1721.81 588.5 1733.24C624.51 1744.63 663.76 1734.08 702.03 1702.74C707.71 1698.09 715.83 1697.89 721.73 1702.24L816.38 1772.09C821.42 1775.81 823.83 1782.12 822.57 1788.25C803.91 1878.93 849.66 1933.83 903.28 1948.01C953.97 1961.41 1020.52 1938.99 1046.8 1858.07C1056.36 1828.6 1082.39 1808.93 1111.71 1808.93C1111.95 1808.93 1112.19 1808.93 1112.44 1808.93C1140.16 1809.24 1163.45 1824.44 1178.03 1851.73C1203.07 1898.58 1205.1 1994.97 1128.46 2112.42C1128.34 2112.6 1128.23 2112.77 1128.1 2112.94C1037.84 2240.08 1031.52 2372.57 1108.79 2517.96C1170.97 2634.38 1166.64 2776.89 1097.48 2889.87C1021.06 3014.73 882.64 3083.05 706.86 3083.06ZM357.07 1950.07C406.01 2075.6 333.24 2174.99 256.18 2280.2C241.9 2299.7 227.14 2319.86 213.08 2340.31C152.75 2428.04 122.15 2527.74 124.57 2628.63C131.8 2929.52 423.97 3044.02 695 3050.85C864.69 3053.93 998.05 2990.83 1070.1 2873.11C1133.34 2769.8 1137.3 2639.5 1080.46 2533.06C996.96 2375.96 1003.92 2232.55 1101.74 2094.62C1166.14 1995.79 1172.25 1909.04 1149.72 1866.87C1143.49 1855.2 1131.9 1841.26 1112.08 1841.04C1096.53 1840.76 1082.63 1851.69 1077.33 1867.99C1044.61 1968.74 959.93 1996.18 895.07 1979.05C831.1 1962.13 772.13 1896.66 789.24 1791.97L712.44 1735.29C668.76 1767.27 621.71 1777.43 578.82 1763.86C532.28 1749.13 495.45 1707.94 480.32 1653.66C473.87 1630.49 473.07 1605.24 477.95 1578.58C484.48 1542.91 476.78 1516.14 458.32 1510.41C435.05 1503.17 395.54 1528.36 368.18 1589.31C340.63 1655.98 302.31 1792.11 357.07 1950.07Z" />
					</g>
					<g id="&lt;Group&gt;">
						<path id="&lt;Path&gt;" class="shp3" d="M1024.5 2140.65C959.51 2256.4 971.54 2416.83 1059.11 2605.26C1066.83 2621.88 1072.4 2639.52 1074.13 2657.76C1081.01 2730.51 1035.99 2779.68 988.41 2760.91C978.17 2756.87 969.45 2749.76 962.43 2741.28C896.4 2661.54 818.42 2602.86 721.54 2577.48L482.47 2537.64C356.69 2488 362.12 2337.42 458.98 2222.8C538.87 2116.8 572.47 2008.75 564.03 1898.82C545.53 1838.87 586.97 1798.73 645.78 1854.92L807.39 1970.43C874.93 2034.5 973.02 2043.4 1047.28 1978.45C1056.33 1970.53 1069.64 1968.45 1080.12 1974.36C1103.29 1987.42 1107.27 2031.89 1051.92 2101.12C1041.9 2113.66 1032.36 2126.64 1024.5 2140.65Z" />
					</g>
					<g id="&lt;Group&gt;" style="opacity: 0.549">
						<path id="&lt;Path&gt;" class="shp2" d="M619.47 1838.17C594.14 1841.02 581.94 1870.96 593.62 1908.78C602.09 2018.68 568.46 2126.74 488.58 2232.72C395.74 2342.67 386.88 2485.64 497.25 2540.94L477.47 2537.64C351.69 2488 357.09 2337.4 453.98 2222.8C533.86 2116.82 567.49 2008.76 559.01 1898.8C542.87 1846.4 572.5 1809.15 619.47 1838.17Z" />
					</g>
					<g id="&lt;Group&gt;">
						<path id="&lt;Compound Path&gt;" fill-rule="evenodd" class="shp0" d="M1008.93 2778.36C1000.53 2778.36 991.97 2776.7 983.5 2773.36C971.8 2768.74 961.24 2760.82 952.13 2749.81C882.47 2665.7 806.13 2613.61 718.73 2590.58L480.27 2550.83C479.35 2550.68 478.43 2550.42 477.56 2550.08C425.8 2529.65 391.72 2492.22 379.04 2441.81C361.43 2371.89 387.41 2286.91 448.52 2214.46C524.24 2113.87 558.65 2008.5 550.8 1901.28C540.44 1866.19 547.9 1834.88 570 1821.21C580.85 1814.49 610.76 1803.38 654.32 1844.58L815.17 1959.55C815.67 1959.91 816.15 1960.3 816.6 1960.73C881.74 2022.52 972.98 2025.67 1038.47 1968.38C1052.12 1956.43 1071.5 1954.14 1086.69 1962.71C1097.96 1969.06 1105.67 1980.32 1108.41 1994.4C1114.19 2024.23 1097.85 2065.1 1062.37 2109.47C1050.68 2124.1 1042.6 2135.73 1036.16 2147.19C973.46 2258.88 985.59 2415.33 1071.24 2599.62C1080.26 2619.03 1085.71 2638.17 1087.45 2656.5C1091.75 2702.03 1077.02 2743.41 1049 2764.48C1036.76 2773.68 1023.05 2778.36 1008.93 2778.36ZM486.09 2524.68L723.74 2564.29C724.14 2564.35 724.54 2564.44 724.93 2564.54C818.17 2588.97 899.23 2643.99 972.74 2732.75C978.94 2740.24 985.86 2745.53 993.31 2748.47C1010.92 2755.41 1024.56 2749.37 1032.92 2743.09C1053.56 2727.58 1064.25 2695.36 1060.81 2659.02C1059.36 2643.72 1054.71 2627.54 1046.98 2610.9C957.55 2418.47 945.75 2253.59 1012.83 2134.1C1020.01 2121.32 1028.84 2108.57 1041.47 2092.77C1084.15 2039.38 1084.13 2009.75 1082.14 1999.5C1080.89 1993.06 1078 1988.53 1073.55 1986.01C1068.31 1983.07 1061.14 1984.1 1056.09 1988.52C980.02 2055.06 874.38 2051.83 798.87 1980.78L638 1865.8C637.48 1865.44 637 1865.03 636.54 1864.59C615.74 1844.72 595.62 1836.82 584.07 1843.97C572.71 1850.99 569.73 1871.92 576.82 1894.88C577.11 1895.83 577.29 1896.81 577.37 1897.8C586.16 2012.31 549.92 2124.36 469.66 2230.85C469.51 2231.05 469.35 2231.24 469.2 2231.43C414.29 2296.41 389.68 2374.52 404.98 2435.29C415.37 2476.56 443.41 2507.44 486.09 2524.68Z" />
					</g>
					<g id="&lt;Group&gt;">
						<path id="&lt;Path&gt;" class="shp8" d="M1050.16 527.33L1047 546.08L806.7 1961.13C802.55 1985.43 778.89 2001.25 754.87 1995.75L699.52 1983.13L663.76 1974.96C641 1969.79 626.6 1947.31 631.34 1924.47L924.46 512.56L969.83 517.87L1050.16 527.33Z" />
						<path id="&lt;Compound Path&gt;" fill-rule="evenodd" class="shp0" d="M764.57 1999.35C761.17 1999.35 757.73 1998.97 754.31 1998.18L663.2 1977.4C639.3 1971.97 623.91 1948 628.9 1923.97L922.48 509.82L1053.06 525.16L1049.47 546.5L809.16 1961.55C807.04 1974 800.09 1984.71 789.6 1991.71C782.04 1996.75 773.41 1999.35 764.57 1999.35ZM926.44 515.31L633.79 1924.98C629.35 1946.37 643.05 1967.69 664.31 1972.52L755.42 1993.31C766.33 1995.8 777.5 1993.77 786.83 1987.55C796.16 1981.32 802.34 1971.79 804.23 1960.71L1044.54 545.66L1047.26 529.51L926.44 515.31Z" />
					</g>
					<g id="&lt;Group&gt;">
						<g id="&lt;Group&gt;">
							<path id="&lt;Path&gt;" class="shp0" d="M1030.93 645.98C1030.68 645.98 1030.43 645.97 1030.18 645.93L901.04 627.69C898.11 627.27 896.07 624.57 896.49 621.64C896.9 618.71 899.6 616.68 902.53 617.09L1031.67 635.33C1034.6 635.75 1036.64 638.45 1036.23 641.38C1035.85 644.05 1033.56 645.98 1030.93 645.98Z" />
						</g>
						<g id="&lt;Group&gt;">
							<path id="&lt;Path&gt;" class="shp0" d="M1002.69 750.31C1002.44 750.31 1002.19 750.29 1001.94 750.26L872.8 732.01C869.87 731.6 867.83 728.89 868.25 725.97C868.66 723.04 871.35 721 874.29 721.42L1003.43 739.66C1006.36 740.07 1008.4 742.78 1007.98 745.71C1007.61 748.38 1005.32 750.31 1002.69 750.31Z" />
						</g>
						<g id="&lt;Group&gt;">
							<path id="&lt;Path&gt;" class="shp0" d="M987.1 846.83C986.85 846.83 986.61 846.81 986.35 846.77L857.21 828.53C854.28 828.12 852.25 825.41 852.66 822.48C853.07 819.56 855.76 817.52 858.71 817.94L987.85 836.18C990.78 836.59 992.81 839.3 992.4 842.23C992.02 844.9 989.73 846.83 987.1 846.83Z" />
						</g>
						<g id="&lt;Group&gt;">
							<path id="&lt;Path&gt;" class="shp0" d="M964.77 938.01C964.52 938.01 964.27 937.99 964.01 937.95L834.87 919.71C831.94 919.3 829.91 916.59 830.32 913.66C830.73 910.74 833.43 908.7 836.37 909.11L965.51 927.36C968.44 927.77 970.47 930.48 970.06 933.4C969.68 936.08 967.39 938.01 964.77 938.01Z" />
						</g>
						<g id="&lt;Group&gt;">
							<path id="&lt;Path&gt;" class="shp0" d="M952.23 1023.88C951.98 1023.88 951.73 1023.86 951.47 1023.83L822.33 1005.58C819.4 1005.17 817.37 1002.46 817.78 999.54C818.19 996.61 820.88 994.56 823.83 994.99L952.97 1013.23C955.9 1013.64 957.93 1016.35 957.52 1019.28C957.14 1021.95 954.85 1023.88 952.23 1023.88Z" />
						</g>
						<g id="&lt;Group&gt;">
							<path id="&lt;Path&gt;" class="shp0" d="M933.51 1115.7C933.26 1115.7 933.01 1115.68 932.76 1115.65L803.62 1097.41C800.69 1096.99 798.65 1094.29 799.07 1091.36C799.48 1088.43 802.19 1086.39 805.11 1086.81L934.25 1105.05C937.18 1105.46 939.22 1108.17 938.8 1111.1C938.43 1113.77 936.14 1115.7 933.51 1115.7Z" />
						</g>
						<g id="&lt;Group&gt;">
							<path id="&lt;Path&gt;" class="shp0" d="M918.5 1188.78C918.25 1188.78 918 1188.76 917.74 1188.73L788.61 1170.48C785.68 1170.07 783.64 1167.36 784.06 1164.44C784.47 1161.51 787.16 1159.48 790.1 1159.89L919.24 1178.13C922.17 1178.54 924.2 1181.25 923.79 1184.18C923.41 1186.85 921.12 1188.78 918.5 1188.78Z" />
						</g>
						<g id="&lt;Group&gt;">
							<path id="&lt;Path&gt;" class="shp0" d="M905.94 1259.78C905.69 1259.78 905.44 1259.76 905.19 1259.73L776.04 1241.48C773.11 1241.07 771.08 1238.36 771.49 1235.44C771.9 1232.51 774.61 1230.47 777.54 1230.89L906.68 1249.13C909.61 1249.54 911.65 1252.25 911.23 1255.18C910.85 1257.85 908.56 1259.78 905.94 1259.78Z" />
						</g>
						<g id="&lt;Group&gt;">
							<path id="&lt;Path&gt;" class="shp0" d="M892.11 1334.8C891.86 1334.8 891.61 1334.78 891.36 1334.74L762.22 1316.5C759.29 1316.08 757.25 1313.38 757.67 1310.45C758.08 1307.53 760.77 1305.47 763.71 1305.9L892.85 1324.15C895.78 1324.56 897.82 1327.27 897.4 1330.19C897.03 1332.86 894.74 1334.8 892.11 1334.8Z" />
						</g>
						<g id="&lt;Group&gt;">
							<path id="&lt;Path&gt;" class="shp0" d="M880.97 1400.06C880.72 1400.06 880.47 1400.04 880.21 1400.01L751.07 1381.76C748.14 1381.35 746.11 1378.64 746.52 1375.71C746.93 1372.79 749.63 1370.75 752.57 1371.17L881.71 1389.41C884.64 1389.82 886.67 1392.53 886.26 1395.46C885.88 1398.13 883.59 1400.06 880.97 1400.06Z" />
						</g>
						<g id="&lt;Group&gt;">
							<path id="&lt;Path&gt;" class="shp0" d="M876.66 1530.95C876.42 1530.95 876.17 1530.93 875.91 1530.89L726.25 1509.75C723.32 1509.34 721.28 1506.63 721.7 1503.7C722.11 1500.78 724.81 1498.73 727.74 1499.16L877.41 1520.3C880.34 1520.71 882.37 1523.42 881.96 1526.35C881.58 1529.02 879.29 1530.95 876.66 1530.95Z" />
						</g>
						<g id="&lt;Group&gt;">
							<path id="&lt;Path&gt;" class="shp0" d="M867.12 1595.79C866.87 1595.79 866.62 1595.77 866.37 1595.73L712.78 1574.04C709.85 1573.62 707.82 1570.92 708.23 1567.99C708.64 1565.07 711.34 1563.02 714.28 1563.44L867.86 1585.14C870.79 1585.55 872.83 1588.26 872.41 1591.19C872.04 1593.86 869.75 1595.79 867.12 1595.79Z" />
						</g>
						<g id="&lt;Group&gt;">
							<path id="&lt;Path&gt;" class="shp0" d="M851.91 1650.99C851.66 1650.99 851.42 1650.98 851.16 1650.94L697.57 1629.24C694.64 1628.83 692.61 1626.12 693.02 1623.2C693.43 1620.27 696.14 1618.22 699.07 1618.65L852.66 1640.35C855.59 1640.76 857.62 1643.47 857.21 1646.39C856.83 1649.06 854.54 1650.99 851.91 1650.99Z" />
						</g>
						<g id="&lt;Group&gt;">
							<path id="&lt;Path&gt;" class="shp0" d="M837.03 1716.45C836.78 1716.45 836.53 1716.44 836.28 1716.4L682.69 1694.7C679.77 1694.29 677.73 1691.58 678.14 1688.66C678.55 1685.73 681.25 1683.69 684.19 1684.11L837.77 1705.8C840.7 1706.22 842.74 1708.92 842.32 1711.85C841.95 1714.52 839.66 1716.45 837.03 1716.45Z" />
						</g>
						<g id="&lt;Group&gt;">
							<path id="&lt;Path&gt;" class="shp0" d="M836.56 1782.65C836.31 1782.65 836.06 1782.63 835.81 1782.59L664.31 1758.37C661.38 1757.96 659.35 1755.25 659.76 1752.32C660.17 1749.4 662.87 1747.36 665.81 1747.77L837.3 1772C840.23 1772.41 842.27 1775.12 841.85 1778.05C841.47 1780.72 839.18 1782.65 836.56 1782.65Z" />
						</g>
						<g id="&lt;Group&gt;">
							<path id="&lt;Path&gt;" class="shp0" d="M828.54 1856.71C828.21 1856.71 827.87 1856.68 827.53 1856.62L655.4 1823.83C652.5 1823.28 650.6 1820.47 651.15 1817.57C651.7 1814.67 654.5 1812.77 657.41 1813.32L829.54 1846.1C832.44 1846.66 834.35 1849.46 833.79 1852.36C833.3 1854.93 831.06 1856.71 828.54 1856.71Z" />
						</g>
						<g id="&lt;Group&gt;">
							<path id="&lt;Path&gt;" class="shp0" d="M811 1935.83C810.64 1935.83 810.28 1935.79 809.91 1935.72L637.58 1900.32C634.69 1899.72 632.83 1896.9 633.42 1894C634.01 1891.11 636.83 1889.22 639.74 1889.83L812.07 1925.24C814.96 1925.83 816.83 1928.66 816.23 1931.55C815.71 1934.09 813.49 1935.83 811 1935.83Z" />
						</g>
						<g id="&lt;Group&gt;">
							<path id="&lt;Path&gt;" class="shp0" d="M890.53 1467.13C890.28 1467.13 890.03 1467.12 889.77 1467.08L740.12 1445.93C737.19 1445.52 735.15 1442.81 735.57 1439.89C735.98 1436.96 738.69 1434.92 741.61 1435.34L891.27 1456.48C894.2 1456.9 896.23 1459.6 895.82 1462.53C895.44 1465.2 893.15 1467.13 890.53 1467.13Z" />
						</g>
					</g>
					<g id="&lt;Group&gt;">
						<path id="&lt;Path&gt;" class="shp0" d="M938.52 1983.66C930.37 1983.66 923.36 1977.48 922.54 1969.21C921.65 1960.38 928.07 1952.52 936.89 1951.64L936.94 1951.63C937.23 1951.6 937.51 1951.58 937.81 1951.57C946.53 1951.21 954.19 1958.02 954.6 1966.88C955 1975.71 948.21 1983.2 939.38 1983.64C939.1 1983.65 938.8 1983.66 938.52 1983.66Z" />
					</g>
					<g id="&lt;Group&gt;">
						<path id="&lt;Path&gt;" class="shp0" d="M764.62 2012.91C760.19 2012.91 755.72 2012.41 751.28 2011.39L660.18 1990.61C629.15 1983.56 609.15 1952.43 615.62 1921.21L908.74 509.3C910.43 501.16 918.06 495.64 926.33 496.62L1052.04 511.39C1060.84 512.43 1067.14 520.4 1066.1 529.21C1065.07 538.01 1057.07 544.32 1048.29 543.27L937.19 530.22L647.06 1927.74C644.12 1941.94 653.2 1956.1 667.31 1959.31L758.43 1980.09C765.7 1981.75 773.11 1980.4 779.3 1976.28C785.51 1972.14 789.61 1965.8 790.87 1958.43L799.45 1907.92C800.93 1899.18 809.19 1893.28 817.97 1894.78C826.71 1896.27 832.59 1904.56 831.1 1913.3L822.52 1963.82C819.8 1979.75 810.55 1994.03 797.12 2002.98C787.3 2009.53 776.09 2012.91 764.62 2012.91Z" />
					</g>
					<g id="&lt;Group&gt;">
						<path id="&lt;Path&gt;" class="shp1" d="M1208.11 148.04C1180.51 167.16 1163.79 198.4 1164.85 231.97L1170.28 413.36C1170.75 427.6 1161.07 440.28 1147.12 443.2C1109.57 451.21 1071.43 477.18 1050.16 527.33L969.83 517.87L924.46 512.56L894.6 474.82C882.99 460.07 881.26 439.81 890.28 423.36L1084.46 69.42C1102.84 35.91 1138.47 14.36 1176.67 16.5C1186.96 17.08 1196.3 19.17 1204.55 22.58L1207.6 23.91L1209.15 24.6C1218.45 29.16 1226.27 35.44 1232.24 42.78C1255.8 71.61 1252.04 117.61 1208.11 148.04Z" />
						<path id="&lt;Compound Path&gt;" fill-rule="evenodd" class="shp0" d="M1051.73 530.03L923.14 514.93L892.64 476.37C880.36 460.77 878.58 439.5 888.09 422.15L1082.27 68.22C1101.5 33.14 1138.65 11.88 1176.82 14.01C1187.2 14.59 1196.85 16.69 1205.5 20.27L1210.17 22.31C1219.61 26.94 1227.89 33.46 1234.18 41.2C1245.97 55.63 1251.03 73.8 1248.41 92.36C1245.32 114.37 1231.51 134.87 1209.54 150.09C1182.1 169.09 1166.33 199.67 1167.35 231.89L1172.78 413.28C1173.3 428.88 1162.72 442.49 1147.64 445.65C1122.95 450.91 1077.76 468.65 1052.46 528.31L1051.73 530.03ZM925.78 510.2L1048.6 524.63C1074.92 464.27 1121.21 446.17 1146.6 440.76C1159.32 438.1 1168.22 426.61 1167.78 413.44L1162.35 232.04C1161.28 198.13 1177.86 165.95 1206.68 145.98C1227.5 131.56 1240.56 112.27 1243.46 91.66C1245.88 74.5 1241.21 57.7 1230.31 44.36C1224.46 37.17 1216.76 31.12 1208.05 26.84L1203.55 24.87C1195.46 21.53 1186.36 19.55 1176.54 19C1140.2 16.98 1104.97 37.23 1086.65 70.62L892.48 424.56C883.93 440.14 885.53 459.26 896.57 473.27L925.78 510.2Z" />
					</g>
					<g id="&lt;Group&gt;" style="opacity: 0.549">
						<path id="&lt;Path&gt;" class="shp2" d="M1217 29.05C1214.61 28.75 1212.18 28.5 1209.65 28.37C1171.44 26.23 1135.81 47.78 1117.44 81.29L923.25 435.22C914.23 451.67 915.96 471.93 927.58 486.68L950.45 515.62L924.46 512.56L894.6 474.82C882.99 460.07 881.26 439.81 890.28 423.36L1084.46 69.42C1102.84 35.91 1138.47 14.36 1176.67 16.5C1186.96 17.08 1196.3 19.17 1204.55 22.58L1207.6 23.91L1209.15 24.6C1211.88 25.95 1214.52 27.47 1217 29.05Z" />
					</g>
					<g id="&lt;Group&gt;">
						<path id="&lt;Compound Path&gt;" fill-rule="evenodd" class="shp0" d="M1050.17 543.39C1049.55 543.39 1048.92 543.35 1048.29 543.27L922.6 528.51C918.37 528.01 914.51 525.86 911.87 522.52L882.01 484.77C866.34 464.88 864.07 437.75 876.21 415.64L1070.39 61.7C1092.11 22.08 1134.15 -1.99 1177.57 0.47C1189.48 1.14 1200.62 3.58 1210.68 7.74L1215.66 9.92C1215.85 10.01 1216.03 10.09 1216.22 10.18C1227.32 15.63 1237.17 23.4 1244.69 32.65C1258.89 50.02 1264.98 71.9 1261.84 94.25C1258.2 120.05 1242.37 143.83 1217.25 161.23C1193.62 177.61 1180.02 203.86 1180.89 231.46L1186.32 412.88C1187.06 435.02 1171.96 454.41 1150.41 458.92C1128.36 463.62 1087.84 479.59 1064.94 533.6C1062.4 539.58 1056.55 543.39 1050.17 543.39ZM932.93 497.39L1040.5 510.03C1062.35 466.76 1099.44 436.96 1143.78 427.5C1150.08 426.19 1154.45 420.46 1154.23 413.89L1148.8 232.45C1147.59 193.94 1166.35 157.44 1198.97 134.84C1216.64 122.6 1227.68 106.6 1230.04 89.77C1231.93 76.4 1228.29 63.32 1219.81 52.94C1215.23 47.31 1209.2 42.55 1202.34 39.14L1198.14 37.3C1191.69 34.64 1184.08 32.99 1175.78 32.53C1144.67 30.81 1114.35 48.3 1098.54 77.14L904.35 431.08C898.43 441.89 899.55 455.15 907.22 464.88L932.93 497.39Z" />
					</g>
					<g id="&lt;Group&gt;">
						<path id="&lt;Path&gt;" class="shp0" d="M958.54 1981C957.19 1981 955.81 1980.83 954.44 1980.46C889.06 1963.23 867.17 1920.07 878.88 1831.52C878.9 1831.32 878.93 1831.13 878.96 1830.94L1096.3 551.04C1096.5 549.81 1096.85 548.61 1097.34 547.46C1118.21 498.25 1157.71 464.14 1205.74 453.9C1212.02 452.55 1216.44 446.8 1216.25 440.21L1210.76 258.84C1209.61 220.28 1228.36 183.79 1260.93 161.23C1282.14 146.53 1293.62 126.56 1292.41 106.42C1291.41 89.79 1281.62 74.94 1266.2 66.59L1260.42 64.09C1262.77 73.78 1263.28 83.97 1261.84 94.25C1258.2 120.05 1242.37 143.83 1217.25 161.23C1193.62 177.61 1180.02 203.86 1180.89 231.46L1186.32 412.88C1187.06 435.02 1171.96 454.41 1150.41 458.92C1128.36 463.62 1087.84 479.59 1064.94 533.6C1061.48 541.77 1052.03 545.57 1043.9 542.11C1035.73 538.65 1031.92 529.23 1035.38 521.07C1056.25 471.84 1095.76 437.74 1143.78 427.5C1150.08 426.19 1154.45 420.46 1154.23 413.89L1148.8 232.45C1147.59 193.94 1166.35 157.44 1198.97 134.84C1216.64 122.6 1227.67 106.6 1230.04 89.77C1231.93 76.4 1228.29 63.32 1219.81 52.94C1215.17 47.23 1209.05 42.43 1202.07 39.01C1194.26 35.17 1190.93 25.8 1194.56 17.89C1198.2 9.98 1207.48 6.41 1215.48 9.84L1279.56 37.39C1279.94 37.55 1280.31 37.73 1280.67 37.92C1306.4 51.51 1322.77 76.39 1324.45 104.49C1326.35 136.09 1309.86 166.39 1279.21 187.62C1255.62 203.97 1242.03 230.23 1242.85 257.88L1248.34 439.26C1248.98 461.37 1233.89 480.72 1212.44 485.3C1190.55 489.97 1150.64 505.67 1127.63 558.31L910.66 1836.02C900.02 1917.01 920.72 1938.37 962.62 1949.42C971.2 1951.68 976.31 1960.46 974.05 1969.04C972.15 1976.24 965.65 1981 958.54 1981Z" />
					</g>
					<g id="&lt;Group&gt;">
						<path id="&lt;Path&gt;" class="shp0" d="M816.33 1917.01C815.63 1917.01 814.93 1916.95 814.22 1916.83C807.42 1915.68 802.83 1909.22 803.99 1902.42L1036.73 531.84C1037.87 525.04 1044.32 520.47 1051.13 521.6C1057.94 522.75 1062.53 529.19 1061.38 536L1059.33 548.16L828.64 1906.6C827.6 1912.7 822.31 1917.01 816.33 1917.01Z" />
					</g>
					<g id="&lt;Group&gt;">
						<path id="&lt;Path&gt;" class="shp0" d="M1110.02 151.95C1110.78 162.14 1103.13 171.02 1092.94 171.78C1082.75 172.54 1073.87 164.89 1073.11 154.7C1072.35 144.51 1080 135.63 1090.19 134.87C1100.38 134.11 1109.26 141.76 1110.02 151.95Z" />
					</g>
					<g id="&lt;Group&gt;">
						<path id="&lt;Path&gt;" class="shp0" d="M1070.26 221.32C1071.02 231.51 1063.37 240.39 1053.18 241.15C1042.99 241.91 1034.11 234.26 1033.35 224.07C1032.59 213.88 1040.23 205 1050.42 204.24C1060.62 203.48 1069.5 211.13 1070.26 221.32Z" />
					</g>
					<g id="&lt;Group&gt;">
						<path id="&lt;Path&gt;" class="shp0" d="M1032.29 287.87C1033.06 298.06 1025.41 306.94 1015.22 307.7C1005.03 308.46 996.15 300.82 995.39 290.62C994.63 280.43 1002.27 271.55 1012.46 270.79C1022.66 270.03 1031.53 277.68 1032.29 287.87Z" />
					</g>
					<g id="&lt;Group&gt;">
						<path id="&lt;Path&gt;" class="shp0" d="M996.14 351.6C996.9 361.8 989.25 370.68 979.06 371.44C968.87 372.2 959.99 364.55 959.23 354.36C958.47 344.17 966.11 335.29 976.3 334.53C986.5 333.77 995.37 341.41 996.14 351.6Z" />
					</g>
					<g id="&lt;Group&gt;">
						<path id="&lt;Path&gt;" class="shp0" d="M956.62 424.31C957.38 434.5 949.74 443.38 939.54 444.14C929.35 444.9 920.47 437.26 919.71 427.06C918.95 416.87 926.6 407.99 936.79 407.23C946.98 406.47 955.86 414.12 956.62 424.31Z" />
					</g>
					<g id="&lt;Group&gt;">
						<path id="&lt;Path&gt;" class="shp0" d="M1012.76 100.45C1021.1 105.36 1025.36 114.59 1024.31 123.61L1040.78 133.3L1030.91 150.05L1014.45 140.36C1007.07 145.66 996.94 146.41 988.6 141.5C977.28 134.84 976.72 122.11 983.38 110.8C990.05 99.48 1001.44 93.79 1012.76 100.45Z" />
					</g>
					<g id="&lt;Group&gt;">
						<path id="&lt;Path&gt;" class="shp0" d="M981.54 167.51C989.89 172.42 994.15 181.64 993.09 190.66L1009.56 200.36L999.7 217.11L983.23 207.42C975.85 212.71 965.73 213.47 957.38 208.56C946.06 201.89 945.51 189.17 952.17 177.85C958.83 166.53 970.23 160.85 981.54 167.51Z" />
					</g>
					<g id="&lt;Group&gt;">
						<path id="&lt;Path&gt;" class="shp0" d="M944.28 229.98C952.63 234.9 956.89 244.12 955.84 253.14L972.3 262.83L962.44 279.58L945.97 269.89C938.59 275.19 928.47 275.94 920.12 271.03C908.8 264.37 908.25 251.64 914.91 240.33C921.57 229.01 932.97 223.32 944.28 229.98Z" />
					</g>
					<g id="&lt;Group&gt;">
						<path id="&lt;Path&gt;" class="shp0" d="M910.65 300.57C918.99 305.49 923.25 314.71 922.2 323.73L938.66 333.42L928.8 350.17L912.34 340.48C904.96 345.78 894.83 346.53 886.49 341.62C875.17 334.96 874.61 322.23 881.27 310.92C887.93 299.6 899.33 293.91 910.65 300.57Z" />
					</g>
					<g id="&lt;Group&gt;">
						<path id="&lt;Path&gt;" class="shp0" d="M873.34 355.66C881.69 360.57 885.94 369.79 884.89 378.82L901.36 388.51L891.49 405.26L875.03 395.57C867.65 400.87 857.52 401.62 849.18 396.71C837.86 390.05 837.3 377.32 843.96 366C850.63 354.69 862.02 349 873.34 355.66Z" />
					</g>
					<g id="&lt;Group&gt;">
						<path id="&lt;Path&gt;" class="shp0" d="M650.05 2669.51L480.14 2630.1C462.29 2625.96 451.17 2608.13 455.31 2590.27L470.91 2522.99C475.05 2505.14 492.88 2494.02 510.74 2498.16L680.65 2537.56C698.51 2541.7 709.62 2559.53 705.48 2577.39L689.88 2644.67C685.74 2662.53 667.91 2673.65 650.05 2669.51Z" />
						<path id="&lt;Compound Path&gt;" fill-rule="evenodd" class="shp0" d="M657.64 2681.08C654.31 2681.08 650.95 2680.7 647.63 2679.93L477.72 2640.53C454.15 2635.07 439.41 2611.43 444.88 2587.86L460.49 2520.57C463.13 2509.15 470.07 2499.45 480.02 2493.25C489.98 2487.04 501.75 2485.08 513.16 2487.73L683.07 2527.14C694.49 2529.78 704.19 2536.72 710.39 2546.67C716.6 2556.62 718.56 2568.39 715.91 2579.81L700.3 2647.09C697.66 2658.51 690.72 2668.22 680.77 2674.42C673.72 2678.82 665.75 2681.08 657.64 2681.08ZM503.2 2507.99C499.04 2507.99 494.96 2509.15 491.35 2511.41C486.25 2514.58 482.69 2519.56 481.34 2525.41L465.73 2592.69C462.93 2604.77 470.48 2616.88 482.56 2619.68L652.47 2659.08C652.47 2659.08 652.47 2659.08 652.47 2659.08C658.32 2660.45 664.35 2659.44 669.44 2656.26C674.54 2653.08 678.1 2648.11 679.45 2642.26L695.06 2574.97C696.42 2569.12 695.41 2563.09 692.23 2558C689.06 2552.9 684.08 2549.34 678.23 2547.99L508.32 2508.58C506.62 2508.19 504.91 2507.99 503.2 2507.99Z" />
					</g>
					<g id="&lt;Group&gt;">
						<path id="&lt;Path&gt;" class="shp2" d="M644.83 2657.17L487.37 2620.66C474.83 2617.75 467.02 2605.22 469.92 2592.68L470.13 2591.77C473.04 2579.23 485.57 2571.42 498.11 2574.33L655.57 2610.85C668.12 2613.75 675.93 2626.28 673.02 2638.82L672.81 2639.73C669.9 2652.27 657.37 2660.08 644.83 2657.17Z" />
						<path id="&lt;Compound Path&gt;" fill-rule="evenodd" class="shp0" d="M650.09 2660.28C648.17 2660.28 646.22 2660.06 644.26 2659.61L486.8 2623.09C472.94 2619.88 464.27 2605.98 467.49 2592.11L467.7 2591.21C469.26 2584.49 473.33 2578.78 479.19 2575.14C485.04 2571.48 491.95 2570.33 498.68 2571.89L656.14 2608.41C662.85 2609.96 668.56 2614.05 672.21 2619.9C675.86 2625.75 677.01 2632.67 675.45 2639.39L675.24 2640.29C672.48 2652.21 661.83 2660.28 650.09 2660.28ZM645.39 2654.74C656.56 2657.35 667.78 2650.35 670.37 2639.16L670.58 2638.26C671.84 2632.84 670.91 2627.26 667.97 2622.54C665.02 2617.83 660.42 2614.53 655 2613.28L497.55 2576.77C492.13 2575.5 486.55 2576.44 481.84 2579.38C477.11 2582.32 473.83 2586.92 472.57 2592.34L472.36 2593.24C471.1 2598.66 472.03 2604.24 474.98 2608.96C477.91 2613.68 482.51 2616.97 487.93 2618.22L645.39 2654.74Z" />
					</g>
					<g id="&lt;Group&gt;" style="opacity: 0.4">
						<path id="&lt;Path&gt;" class="shp7" d="M673 2638.84L672.79 2639.71C669.92 2652.27 657.36 2660.08 644.85 2657.15L624.1 2652.31C636.48 2654.98 648.72 2647.2 651.61 2634.8L651.81 2633.88C654.74 2621.37 646.88 2608.81 634.38 2605.93L655.56 2610.84C668.12 2613.77 675.92 2626.28 673 2638.84Z" />
						<path id="&lt;Compound Path&gt;" fill-rule="evenodd" class="shp0" d="M650.19 2660.27C648.22 2660.27 646.24 2660.04 644.28 2659.58L623.53 2654.74L624.63 2649.87C635.63 2652.22 646.62 2645.22 649.17 2634.24L649.36 2633.35C650.63 2627.92 649.71 2622.35 646.77 2617.63C643.83 2612.92 639.26 2609.64 633.88 2608.38L633.82 2608.37L633.81 2608.37L634.94 2603.49C634.97 2603.5 634.99 2603.51 635.02 2603.51L656.13 2608.41C662.85 2609.97 668.56 2614.06 672.21 2619.91C675.85 2625.76 677 2632.68 675.43 2639.41L675.43 2639.41L675.22 2640.29C673.7 2646.99 669.62 2652.7 663.77 2656.35C659.63 2658.94 654.95 2660.27 650.19 2660.27ZM639.04 2653.23L645.42 2654.71C650.83 2655.98 656.4 2655.05 661.12 2652.11C665.84 2649.16 669.12 2644.57 670.36 2639.16L670.56 2638.27C671.83 2632.85 670.9 2627.27 667.96 2622.55C665.02 2617.84 660.42 2614.54 654.99 2613.28L648.69 2611.81C649.54 2612.81 650.31 2613.86 651.01 2614.98C654.66 2620.84 655.81 2627.76 654.24 2634.45L654.05 2635.33C652.12 2643.62 646.34 2650.08 639.04 2653.23Z" />
					</g>
					<g id="&lt;Group&gt;">
						<path id="&lt;Path&gt;" class="shp2" d="M738.44 2109.74L622.66 2082.89C604.43 2078.66 593.07 2060.45 597.3 2042.22L597.3 2042.22C601.53 2023.99 619.74 2012.64 637.97 2016.86L753.75 2043.71C771.98 2047.94 783.34 2066.15 779.11 2084.38L779.11 2084.38C774.88 2102.62 756.67 2113.97 738.44 2109.74Z" />
						<path id="&lt;Compound Path&gt;" fill-rule="evenodd" class="shp0" d="M746.09 2113.12C743.38 2113.12 740.62 2112.82 737.87 2112.18L622.09 2085.33C612.63 2083.13 604.57 2077.38 599.43 2069.13C594.29 2060.88 592.67 2051.13 594.86 2041.66C599.4 2022.11 618.96 2009.9 638.54 2014.43L754.32 2041.28C763.78 2043.48 771.84 2049.23 776.98 2057.47C782.12 2065.72 783.74 2075.48 781.55 2084.95C777.65 2101.74 762.64 2113.12 746.09 2113.12ZM739 2107.31C755.86 2111.23 772.76 2100.68 776.67 2083.82C778.57 2075.65 777.17 2067.23 772.73 2060.12C768.3 2053.01 761.35 2048.04 753.18 2046.15L637.41 2019.3C620.58 2015.39 603.65 2025.92 599.74 2042.78C597.84 2050.95 599.24 2059.37 603.68 2066.49C608.11 2073.6 615.06 2078.56 623.23 2080.46L739 2107.31Z" />
					</g>
					<g id="&lt;Group&gt;" style="opacity: 0.4">
						<path id="&lt;Path&gt;" class="shp0" d="M779.08 2084.41C775.68 2099.2 763.03 2109.48 748.63 2110.56C745.26 2110.81 741.87 2110.58 738.42 2109.76L622.66 2082.88C621.46 2082.59 620.31 2082.25 619.15 2081.85L706.84 2102.19C710.28 2102.96 713.68 2103.24 716.99 2102.99C731.4 2101.92 744.05 2091.64 747.5 2076.84C751.44 2059.86 741.91 2042.91 725.88 2037.24L753.72 2043.69C771.97 2047.97 783.36 2066.17 779.08 2084.41Z" />
					</g>
					<g id="&lt;Group&gt;" style="opacity: 0.4">
						<path id="&lt;Path&gt;" class="shp0" d="M803.29 2093.78C799.88 2108.58 787.24 2118.86 772.83 2119.93C769.47 2120.18 766.07 2119.95 762.63 2119.14L646.86 2092.25C645.66 2091.97 644.51 2091.62 643.35 2091.23L731.05 2111.57C734.48 2112.33 737.89 2112.61 741.19 2112.37C755.6 2111.29 768.25 2101.01 771.71 2086.21C775.64 2069.23 766.12 2052.29 750.08 2046.61L777.93 2053.07C796.17 2057.34 807.56 2075.54 803.29 2093.78Z" />
					</g>
					<g id="&lt;Group&gt;">
						<path id="&lt;Compound Path&gt;" fill-rule="evenodd" class="shp0" d="M746.09 2121.33C742.77 2121.33 739.39 2120.95 736.02 2120.17L620.24 2093.32C608.64 2090.63 598.78 2083.58 592.48 2073.47C586.17 2063.36 584.18 2051.41 586.87 2039.8C592.43 2015.85 616.45 2000.88 640.39 2006.44L756.17 2033.29C767.77 2035.98 777.63 2043.03 783.93 2053.14C790.24 2063.24 792.23 2075.2 789.54 2086.8C784.77 2107.38 766.37 2121.33 746.09 2121.33ZM740.85 2099.32C753.29 2102.2 765.8 2094.42 768.69 2081.97C770.08 2075.93 769.05 2069.72 765.78 2064.46C762.49 2059.2 757.37 2055.54 751.33 2054.14L635.56 2027.29C623.11 2024.43 610.61 2032.18 607.72 2044.64C606.33 2050.67 607.36 2056.89 610.63 2062.14C613.92 2067.4 619.04 2071.07 625.08 2072.47L740.85 2099.32Z" />
					</g>
					<g id="&lt;Group&gt;">
						<path id="&lt;Path&gt;" class="shp2" d="M705.45 2269.86L589.67 2243.01C571.43 2238.78 560.08 2220.57 564.31 2202.34L564.31 2202.34C568.54 2184.11 586.75 2172.76 604.98 2176.98L720.76 2203.83C738.99 2208.06 750.35 2226.27 746.12 2244.5L746.12 2244.5C741.89 2262.74 723.68 2274.09 705.45 2269.86Z" />
						<path id="&lt;Compound Path&gt;" fill-rule="evenodd" class="shp0" d="M713.17 2273.25C710.41 2273.25 707.64 2272.94 704.88 2272.3L589.1 2245.45C579.63 2243.25 571.59 2237.5 566.44 2229.25C561.3 2221 559.68 2211.24 561.87 2201.78C564.07 2192.31 569.82 2184.26 578.07 2179.12C586.32 2173.98 596.08 2172.35 605.55 2174.55L721.33 2201.4C730.8 2203.6 738.84 2209.35 743.98 2217.6C749.13 2225.84 750.75 2235.6 748.55 2245.07C746.36 2254.54 740.6 2262.59 732.36 2267.73C726.51 2271.38 719.9 2273.25 713.17 2273.25ZM597.27 2178.6C591.46 2178.6 585.76 2180.22 580.71 2183.36C573.6 2187.8 568.64 2194.74 566.75 2202.91C564.85 2211.07 566.25 2219.49 570.69 2226.6C575.12 2233.72 582.06 2238.68 590.23 2240.57L706.02 2267.43C714.17 2269.32 722.6 2267.92 729.71 2263.48C736.83 2259.05 741.79 2252.11 743.68 2243.94C745.58 2235.77 744.17 2227.36 739.74 2220.24C735.31 2213.13 728.36 2208.17 720.19 2206.27L604.41 2179.42C602.04 2178.87 599.64 2178.6 597.27 2178.6Z" />
					</g>
					<g id="&lt;Group&gt;" style="opacity: 0.302">
						<path id="&lt;Path&gt;" class="shp0" d="M746.12 2244.52C742.71 2259.31 730.07 2269.59 715.66 2270.67C712.3 2270.92 708.9 2270.69 705.46 2269.87L589.64 2242.99C581.61 2241.12 574.89 2236.53 570.3 2230.43L674.21 2254.5C677.65 2255.31 681.05 2255.54 684.41 2255.29C698.82 2254.22 711.46 2243.94 714.87 2229.14C717.22 2218.99 714.75 2208.87 708.97 2201.09L720.76 2203.86C739 2208.08 750.34 2226.28 746.12 2244.52Z" />
					</g>
					<g id="&lt;Group&gt;" style="opacity: 0.302">
						<path id="&lt;Path&gt;" class="shp0" d="M772.33 2255.99C768.92 2270.78 756.28 2281.06 741.87 2282.14C738.51 2282.39 735.11 2282.16 731.67 2281.34L615.85 2254.46C607.82 2252.59 601.1 2248 596.51 2241.9L700.42 2265.97C703.86 2266.78 707.26 2267.01 710.62 2266.76C725.03 2265.69 737.67 2255.41 741.08 2240.61C743.43 2230.46 740.96 2220.34 735.17 2212.56L746.97 2215.33C765.21 2219.55 776.55 2237.75 772.33 2255.99Z" />
					</g>
					<g id="&lt;Group&gt;">
						<path id="&lt;Compound Path&gt;" fill-rule="evenodd" class="shp0" d="M713.19 2281.46C709.81 2281.46 706.41 2281.07 703.03 2280.29L587.25 2253.44C575.65 2250.75 565.79 2243.7 559.49 2233.59C553.18 2223.48 551.2 2211.53 553.89 2199.93C556.57 2188.32 563.62 2178.46 573.73 2172.16C583.85 2165.85 595.81 2163.88 607.4 2166.56L723.18 2193.41C734.78 2196.1 744.64 2203.15 750.94 2213.26C757.25 2223.36 759.23 2235.32 756.54 2246.92C753.85 2258.52 746.81 2268.39 736.7 2274.69C729.53 2279.16 721.43 2281.46 713.19 2281.46ZM597.28 2186.81C592.99 2186.81 588.78 2188 585.05 2190.32C579.8 2193.6 576.13 2198.72 574.74 2204.76C571.85 2217.22 579.63 2229.7 592.08 2232.59L707.87 2259.44C720.31 2262.31 732.81 2254.54 735.69 2242.09C738.58 2229.63 730.8 2217.15 718.34 2214.26L602.56 2187.41C600.81 2187.01 599.04 2186.81 597.28 2186.81Z" />
					</g>
					<g id="&lt;Group&gt;">
						<path id="&lt;Path&gt;" class="shp2" d="M657.13 2457.5L550.07 2405.9C533.21 2397.77 526.12 2377.51 534.25 2360.65L534.25 2360.65C542.38 2343.79 562.63 2336.71 579.49 2344.84L686.56 2396.44C703.42 2404.57 710.5 2424.82 702.38 2441.69L702.38 2441.69C694.25 2458.55 673.99 2465.63 657.13 2457.5Z" />
						<path id="&lt;Compound Path&gt;" fill-rule="evenodd" class="shp0" d="M671.82 2463.38C666.43 2463.38 661.05 2462.17 656.05 2459.75L548.98 2408.15C540.22 2403.93 533.64 2396.55 530.43 2387.38C527.22 2378.2 527.78 2368.32 532 2359.57C540.71 2341.49 562.51 2333.89 580.58 2342.59L687.65 2394.19C705.72 2402.9 713.34 2424.69 704.63 2442.77C700.41 2451.53 693.03 2458.12 683.85 2461.32C679.93 2462.7 675.86 2463.38 671.82 2463.38ZM564.83 2343.98C553.14 2343.98 541.91 2350.53 536.5 2361.74C532.86 2369.29 532.38 2377.81 535.15 2385.73C537.91 2393.64 543.6 2400 551.15 2403.65L658.22 2455.25C665.78 2458.89 674.28 2459.36 682.21 2456.6C690.12 2453.84 696.48 2448.15 700.13 2440.6C707.64 2425.01 701.07 2406.21 685.48 2398.69L578.41 2347.09C574.03 2344.98 569.4 2343.98 564.83 2343.98Z" />
					</g>
					<g id="&lt;Group&gt;" style="opacity: 0.4">
						<path id="&lt;Path&gt;" class="shp0" d="M702.4 2441.7C696.96 2453 686.04 2459.88 674.36 2460.75C668.6 2461.18 662.67 2460.18 657.1 2457.48L637.68 2448.09C640.56 2448.63 643.42 2448.79 646.25 2448.58C657.93 2447.7 668.84 2440.77 674.28 2429.48C682.41 2412.61 675.32 2392.37 658.51 2384.24L571.01 2342.04C573.84 2342.58 576.7 2343.5 579.48 2344.85L686.57 2396.42C703.43 2404.55 710.53 2424.84 702.4 2441.7Z" />
					</g>
					<g id="&lt;Group&gt;" style="opacity: 0.4">
						<path id="&lt;Path&gt;" class="shp0" d="M730.48 2458.84C725.04 2470.13 714.13 2477.01 702.44 2477.88C696.68 2478.31 690.75 2477.31 685.19 2474.61L665.76 2465.22C668.64 2465.76 671.5 2465.92 674.33 2465.71C686.01 2464.84 696.93 2457.91 702.36 2446.61C710.49 2429.74 703.4 2409.51 686.59 2401.37L599.09 2359.18C601.92 2359.72 604.78 2360.63 607.56 2361.98L714.65 2413.55C731.52 2421.68 738.61 2441.97 730.48 2458.84Z" />
					</g>
					<g id="&lt;Group&gt;">
						<path id="&lt;Compound Path&gt;" fill-rule="evenodd" class="shp0" d="M671.82 2471.59C665.2 2471.59 658.62 2470.1 652.48 2467.14L545.42 2415.54C534.69 2410.36 526.62 2401.33 522.68 2390.08C518.75 2378.84 519.44 2366.73 524.61 2356C535.28 2333.87 562 2324.52 584.14 2335.19L691.21 2386.81C713.36 2397.47 722.69 2424.18 712.02 2446.33C706.85 2457.06 697.8 2465.14 686.56 2469.07C681.75 2470.75 676.77 2471.59 671.82 2471.59ZM564.82 2352.18C556.19 2352.18 547.89 2357.02 543.89 2365.3C541.2 2370.88 540.85 2377.17 542.89 2383.02C544.94 2388.87 549.14 2393.57 554.72 2396.26L661.78 2447.86C667.36 2450.56 673.65 2450.9 679.5 2448.86C685.35 2446.82 690.05 2442.62 692.74 2437.03C698.29 2425.52 693.43 2411.63 681.91 2406.08L574.85 2354.48C571.62 2352.92 568.19 2352.18 564.82 2352.18Z" />
					</g>
					<g id="&lt;Group&gt;">
						<g id="&lt;Group&gt;">
							<path id="&lt;Path&gt;" class="shp4" d="M938.78 798.01C930.83 798.61 923.84 792.59 923.25 784.64C922.66 776.69 928.68 769.7 936.63 769.11C944.57 768.52 951.56 774.53 952.16 782.48C952.75 790.43 946.73 797.42 938.78 798.01Z" />
							<path id="&lt;Compound Path&gt;" fill-rule="evenodd" class="shp0" d="M937.69 800.56C933.64 800.56 929.75 799.11 926.63 796.42C923.18 793.46 921.09 789.33 920.76 784.83C920.06 775.48 927.1 767.31 936.44 766.61C945.79 765.95 953.95 772.95 954.65 782.29C955.35 791.64 948.31 799.81 938.97 800.51C938.54 800.54 938.11 800.56 937.69 800.56ZM937.71 771.57C937.41 771.57 937.11 771.58 936.81 771.6C930.22 772.09 925.25 777.86 925.75 784.45C925.98 787.63 927.45 790.54 929.89 792.64C932.32 794.73 935.4 795.77 938.6 795.52C945.19 795.03 950.16 789.26 949.66 782.67C949.19 776.38 943.92 771.57 937.71 771.57Z" />
						</g>
						<g id="&lt;Group&gt;">
							<path id="&lt;Path&gt;" class="shp4" d="M904.55 982L904.55 982C896.61 982.59 889.62 976.58 889.02 968.63C888.43 960.68 894.45 953.69 902.4 953.1C910.35 952.5 917.33 958.52 917.93 966.47C918.52 974.42 912.5 981.41 904.55 982Z" />
							<path id="&lt;Compound Path&gt;" fill-rule="evenodd" class="shp0" d="M903.47 984.54C894.67 984.54 887.2 977.73 886.53 968.82C885.83 959.47 892.87 951.3 902.21 950.6C911.5 949.88 919.72 956.94 920.42 966.28C920.76 970.8 919.31 975.18 916.34 978.63C913.37 982.07 909.25 984.16 904.74 984.49C904.32 984.52 903.89 984.54 903.47 984.54ZM903.49 955.56C903.18 955.56 902.89 955.57 902.58 955.59C895.99 956.08 891.02 961.85 891.52 968.44C892.01 975.04 897.74 980 904.37 979.51C907.55 979.27 910.45 977.8 912.55 975.36C914.65 972.93 915.67 969.83 915.43 966.66C914.97 960.36 909.69 955.56 903.49 955.56Z" />
						</g>
						<g id="&lt;Group&gt;">
							<path id="&lt;Path&gt;" class="shp4" d="M871.41 1152.38L871.41 1152.38C863.46 1152.98 856.47 1146.96 855.88 1139.01L855.88 1139.01C855.29 1131.06 861.3 1124.07 869.25 1123.48C877.2 1122.89 884.19 1128.9 884.78 1136.85C885.38 1144.8 879.36 1151.79 871.41 1152.38Z" />
							<path id="&lt;Compound Path&gt;" fill-rule="evenodd" class="shp0" d="M870.32 1154.93C861.52 1154.93 854.05 1148.11 853.38 1139.2C852.69 1129.85 859.73 1121.68 869.07 1120.98C878.38 1120.27 886.58 1127.32 887.28 1136.66C887.97 1146.01 880.94 1154.18 871.6 1154.88C871.17 1154.91 870.74 1154.93 870.32 1154.93ZM870.34 1125.94C870.04 1125.94 869.74 1125.95 869.44 1125.97C862.85 1126.46 857.88 1132.23 858.37 1138.82C858.87 1145.42 864.71 1150.37 871.23 1149.89C877.82 1149.4 882.78 1143.63 882.29 1137.04C881.82 1130.75 876.55 1125.94 870.34 1125.94Z" />
						</g>
						<g id="&lt;Group&gt;">
							<path id="&lt;Path&gt;" class="shp4" d="M849.64 1504.13C841.69 1504.73 834.7 1498.71 834.11 1490.76L834.11 1490.76C833.52 1482.81 839.54 1475.82 847.48 1475.23C855.43 1474.64 862.42 1480.65 863.02 1488.6C863.61 1496.55 857.59 1503.54 849.64 1504.13Z" />
							<path id="&lt;Compound Path&gt;" fill-rule="evenodd" class="shp0" d="M848.55 1506.68C844.5 1506.68 840.61 1505.23 837.48 1502.54C834.04 1499.58 831.95 1495.45 831.62 1490.95C830.92 1481.6 837.96 1473.43 847.3 1472.74C856.62 1472.03 864.81 1479.08 865.51 1488.42C866.21 1497.76 859.17 1505.93 849.83 1506.63C849.4 1506.66 848.97 1506.68 848.55 1506.68ZM848.57 1477.69C848.27 1477.69 847.97 1477.7 847.67 1477.72C841.08 1478.22 836.11 1483.98 836.61 1490.57C836.84 1493.75 838.31 1496.66 840.75 1498.76C843.18 1500.85 846.25 1501.88 849.46 1501.64C856.05 1501.15 861.02 1495.38 860.52 1488.79C860.05 1482.5 854.78 1477.69 848.57 1477.69Z" />
						</g>
						<g id="&lt;Group&gt;">
							<path id="&lt;Path&gt;" class="shp4" d="M773.45 1682.69L773.45 1682.69C765.51 1683.28 758.52 1677.26 757.92 1669.31C757.33 1661.37 763.35 1654.38 771.3 1653.78L771.3 1653.78C779.25 1653.19 786.24 1659.21 786.83 1667.16C787.42 1675.11 781.4 1682.09 773.45 1682.69Z" />
							<path id="&lt;Compound Path&gt;" fill-rule="evenodd" class="shp0" d="M772.36 1685.23C768.31 1685.23 764.42 1683.79 761.3 1681.1C757.85 1678.13 755.77 1674.01 755.43 1669.5C755.09 1664.99 756.54 1660.61 759.51 1657.16C762.48 1653.71 766.6 1651.63 771.11 1651.29C780.46 1650.61 788.63 1657.63 789.33 1666.97C790.02 1676.31 782.98 1684.48 773.64 1685.18C773.21 1685.21 772.79 1685.23 772.36 1685.23ZM772.38 1656.24C772.08 1656.24 771.79 1656.25 771.48 1656.28C768.31 1656.51 765.4 1657.98 763.3 1660.42C761.21 1662.86 760.18 1665.95 760.42 1669.13C760.65 1672.31 762.12 1675.21 764.56 1677.31C767 1679.41 770.06 1680.45 773.27 1680.2C779.86 1679.7 784.83 1673.94 784.34 1667.34C783.87 1661.05 778.59 1656.24 772.38 1656.24Z" />
						</g>
						<g id="&lt;Group&gt;">
							<path id="&lt;Path&gt;" class="shp4" d="M766.9 1491.97C758.96 1492.57 751.97 1486.55 751.37 1478.6C750.78 1470.65 756.8 1463.66 764.75 1463.07C772.7 1462.48 779.68 1468.49 780.28 1476.44C780.87 1484.39 774.85 1491.38 766.9 1491.97Z" />
							<path id="&lt;Compound Path&gt;" fill-rule="evenodd" class="shp0" d="M765.81 1494.52C757.02 1494.52 749.55 1487.7 748.88 1478.79C748.18 1469.44 755.22 1461.27 764.56 1460.58C769.11 1460.24 773.45 1461.69 776.9 1464.66C780.35 1467.63 782.44 1471.75 782.77 1476.26C783.47 1485.6 776.43 1493.77 767.09 1494.47C766.66 1494.5 766.23 1494.52 765.81 1494.52ZM765.83 1465.53C765.53 1465.53 765.23 1465.54 764.93 1465.56C758.34 1466.06 753.37 1471.82 753.87 1478.41C754.36 1485.01 760.2 1489.98 766.72 1489.48C773.31 1488.99 778.28 1483.22 777.78 1476.63C777.55 1473.45 776.08 1470.55 773.64 1468.45C771.44 1466.55 768.69 1465.53 765.83 1465.53Z" />
						</g>
						<g id="&lt;Group&gt;">
							<path id="&lt;Path&gt;" class="shp4" d="M840.88 1303.15C832.9 1303.75 825.95 1297.76 825.35 1289.78C824.76 1281.8 830.75 1274.84 838.73 1274.25C846.71 1273.65 853.66 1279.64 854.26 1287.62C854.85 1295.6 848.87 1302.56 840.88 1303.15Z" />
							<path id="&lt;Compound Path&gt;" fill-rule="evenodd" class="shp0" d="M839.78 1305.69C835.72 1305.69 831.83 1304.25 828.72 1301.58C825.28 1298.61 823.2 1294.49 822.86 1289.96C822.52 1285.44 823.97 1281.05 826.93 1277.61C829.89 1274.17 834.02 1272.09 838.54 1271.75C843.04 1271.41 847.45 1272.86 850.89 1275.82C854.33 1278.79 856.41 1282.91 856.75 1287.43C857.09 1291.96 855.64 1296.35 852.68 1299.79C849.72 1303.23 845.6 1305.31 841.07 1305.64C840.64 1305.67 840.2 1305.69 839.78 1305.69ZM839.83 1276.7C839.53 1276.7 839.22 1276.72 838.92 1276.74C835.72 1276.98 832.81 1278.45 830.72 1280.87C828.63 1283.3 827.61 1286.4 827.85 1289.59C828.09 1292.78 829.56 1295.7 831.98 1297.79C834.41 1299.87 837.46 1300.88 840.7 1300.66C843.89 1300.42 846.8 1298.95 848.89 1296.52C850.98 1294.1 852 1291 851.76 1287.81C851.53 1284.61 850.06 1281.7 847.63 1279.61C845.43 1277.72 842.69 1276.7 839.83 1276.7Z" />
						</g>
					</g>
					<g id="&lt;Group&gt;">
						<g id="&lt;Group&gt;">
							<path id="&lt;Path&gt;" class="shp2" d="M521.02 2594.3L515.79 2593.21L947.74 515.52L936.04 433.18L941.34 432.43L953.17 515.69L953.07 516.15L521.02 2594.3Z" />
						</g>
						<g id="&lt;Group&gt;">
							<path id="&lt;Path&gt;" class="shp2" d="M546.6 2607.36L541.35 2606.3L965.79 517.17L977.15 363.36L982.48 363.75L971.07 517.9L546.6 2607.36Z" />
						</g>
						<g id="&lt;Group&gt;">
							<path id="&lt;Path&gt;" class="shp2" d="M577.17 2609.53L571.92 2608.5L984.31 519.37L1011.19 288.94L1016.5 289.56L989.59 520.2L577.17 2609.53Z" />
						</g>
						<g id="&lt;Group&gt;">
							<path id="&lt;Path&gt;" class="shp2" d="M605.31 2615.02L600.05 2614.02L1001.59 521.42L1049.16 222.27L1054.44 223.11L1006.85 522.34L605.31 2615.02Z" />
						</g>
						<g id="&lt;Group&gt;">
							<path id="&lt;Path&gt;" class="shp2" d="M635.54 2618.57L630.27 2617.59L1019.59 523.55L1088.93 152.83L1094.2 153.82L1024.86 524.53L635.54 2618.57Z" />
						</g>
					</g>
					<g id="&lt;Group&gt;" style="opacity: 0.302">
						<path id="&lt;Path&gt;" class="shp0" d="M1123.58 2627.9C1125.52 2649.88 1125.49 2672.02 1123.47 2694.04C1123.17 2697.07 1122.81 2700.16 1122.46 2703.24C1122.18 2705.88 1121.85 2708.56 1121.47 2711.24C1117.01 2742.82 1108.37 2773.86 1095.57 2803.47C1093.2 2808.93 1090.74 2814.28 1088.18 2819.57C1086.86 2822.18 1085.53 2824.85 1084.15 2827.42C1078.64 2837.92 1072.59 2848.19 1066.06 2858.18C1057.81 2870.66 1048.74 2882.73 1038.74 2894.34C989.58 2951.49 919.38 2996.42 828.21 3018.5C795.2 3026.52 759.49 3031.55 721 3033.09C847.22 2997.27 945.31 2902.29 962.47 2741.32C1003.24 2789.64 1050.28 2774.74 1067.69 2726.45C1067.75 2726.25 1067.82 2726.05 1067.88 2725.86C1074.49 2667.32 1066.75 2607.57 1044.78 2552.38C1039.97 2540.34 1034.49 2528.55 1028.35 2517.01C1011.08 2484.49 998.09 2453.1 988.99 2422.78C977.39 2384.07 972.19 2347.04 972.61 2311.54C973.4 2232.87 1001.66 2161.54 1048.78 2095.19C1083.78 2041.6 1102.44 1990.98 1108.87 1948.01C1113.88 1914.17 1111.32 1885.03 1103.03 1862.83C1105.25 1862.53 1107.52 1862.38 1109.77 1862.43C1131.5 1862.68 1149.48 1874.9 1161.04 1896.12C1169.52 1911.72 1174.57 1932.15 1175.11 1956.29C1168.74 1999.31 1150.07 2049.98 1115.02 2103.66C1067.95 2169.98 1039.69 2241.25 1038.85 2319.92C1038.43 2355.37 1043.64 2392.3 1055.19 2430.96C1064.23 2461.38 1077.27 2492.86 1094.63 2525.49C1100.82 2537.18 1106.39 2549.08 1111.18 2561.28C1117.45 2583.09 1121.52 2605.41 1123.58 2627.9Z" />
					</g>
					<g id="&lt;Group&gt;" style="opacity: 0.4">
						<path id="&lt;Path&gt;" class="shp7" d="M610.89 3061.32C621.82 3062.54 632.83 3063.49 643.79 3064.34C632.84 3063.54 621.87 3062.54 610.89 3061.32Z" />
						<path id="&lt;Path&gt;" class="shp0" d="M643.61 3066.83C634.74 3066.19 625.78 3065.4 616.89 3064.48C614.75 3064.26 612.66 3064.03 610.6 3063.8L611.16 3058.83C611.17 3058.83 611.18 3058.84 611.18 3058.84C613.24 3059.07 615.31 3059.29 617.38 3059.5C625.08 3060.29 633.55 3061.04 643.98 3061.85L643.61 3066.83Z" />
					</g>
					<g id="&lt;Group&gt;">
						<path id="&lt;Path&gt;" class="shp0" d="M637.56 2049.1C637.89 2053.52 634.57 2057.37 630.15 2057.7C625.73 2058.03 621.88 2054.72 621.55 2050.3C621.22 2045.88 624.53 2042.03 628.95 2041.7C633.37 2041.37 637.23 2044.68 637.56 2049.1Z" />
					</g>
					<g id="&lt;Group&gt;">
						<path id="&lt;Path&gt;" class="shp0" d="M664.73 2057.01C665.06 2061.43 661.75 2065.28 657.32 2065.61C652.9 2065.94 649.05 2062.62 648.72 2058.2C648.39 2053.78 651.71 2049.93 656.13 2049.6C660.55 2049.27 664.4 2052.58 664.73 2057.01Z" />
					</g>
					<g id="&lt;Group&gt;">
						<path id="&lt;Path&gt;" class="shp0" d="M690.3 2063.82C690.63 2068.24 687.32 2072.09 682.9 2072.42C678.48 2072.75 674.63 2069.43 674.3 2065.01C673.97 2060.59 677.28 2056.74 681.7 2056.41C686.12 2056.08 689.97 2059.4 690.3 2063.82Z" />
					</g>
					<g id="&lt;Group&gt;">
						<path id="&lt;Path&gt;" class="shp0" d="M715.75 2068.88C716.08 2073.3 712.76 2077.15 708.34 2077.48C703.92 2077.81 700.07 2074.49 699.74 2070.07C699.41 2065.65 702.72 2061.8 707.15 2061.47C711.57 2061.14 715.42 2064.46 715.75 2068.88Z" />
					</g>
					<g id="&lt;Group&gt;">
						<path id="&lt;Path&gt;" class="shp0" d="M743.51 2073.67C743.84 2078.09 740.52 2081.95 736.1 2082.28C731.68 2082.61 727.83 2079.29 727.5 2074.87C727.17 2070.45 730.49 2066.6 734.91 2066.27C739.33 2065.94 743.18 2069.25 743.51 2073.67Z" />
					</g>
					<g id="&lt;Group&gt;">
						<path id="&lt;Path&gt;" class="shp0" d="M605.53 2209.45C605.86 2213.87 602.54 2217.72 598.12 2218.05C593.7 2218.38 589.85 2215.06 589.52 2210.64C589.19 2206.22 592.51 2202.37 596.93 2202.04C601.35 2201.71 605.2 2205.03 605.53 2209.45Z" />
					</g>
					<g id="&lt;Group&gt;">
						<path id="&lt;Path&gt;" class="shp0" d="M632.71 2217.35C633.04 2221.77 629.72 2225.62 625.3 2225.95C620.88 2226.28 617.03 2222.96 616.7 2218.54C616.37 2214.12 619.68 2210.27 624.1 2209.94C628.52 2209.61 632.38 2212.93 632.71 2217.35Z" />
					</g>
					<g id="&lt;Group&gt;">
						<path id="&lt;Path&gt;" class="shp0" d="M658.98 2223.02C659.31 2227.44 655.99 2231.29 651.57 2231.62C647.15 2231.95 643.3 2228.63 642.97 2224.21C642.64 2219.79 645.95 2215.94 650.37 2215.61C654.79 2215.28 658.65 2218.6 658.98 2223.02Z" />
					</g>
					<g id="&lt;Group&gt;">
						<path id="&lt;Path&gt;" class="shp0" d="M683.72 2229.22C684.05 2233.64 680.73 2237.49 676.31 2237.82C671.89 2238.15 668.04 2234.84 667.71 2230.42C667.38 2226 670.7 2222.14 675.12 2221.81C679.54 2221.48 683.39 2224.8 683.72 2229.22Z" />
					</g>
					<g id="&lt;Group&gt;">
						<path id="&lt;Path&gt;" class="shp0" d="M711.48 2234.02C711.81 2238.44 708.49 2242.29 704.07 2242.62C699.65 2242.95 695.8 2239.63 695.47 2235.21C695.14 2230.79 698.46 2226.94 702.88 2226.61C707.3 2226.28 711.15 2229.6 711.48 2234.02Z" />
					</g>
					<g id="&lt;Group&gt;">
						<path id="&lt;Path&gt;" class="shp0" d="M571.6 2376.21C570.84 2380.58 566.69 2383.51 562.32 2382.75C557.95 2381.99 555.02 2377.84 555.78 2373.47C556.54 2369.1 560.69 2366.18 565.06 2366.93C569.43 2367.69 572.35 2371.84 571.6 2376.21Z" />
					</g>
					<g id="&lt;Group&gt;">
						<path id="&lt;Path&gt;" class="shp0" d="M595.34 2390.54C594.58 2394.91 590.43 2397.84 586.06 2397.08C581.69 2396.32 578.77 2392.17 579.52 2387.8C580.28 2383.43 584.44 2380.51 588.8 2381.26C593.17 2382.02 596.1 2386.17 595.34 2390.54Z" />
					</g>
					<g id="&lt;Group&gt;">
						<path id="&lt;Path&gt;" class="shp0" d="M618.16 2402.38C617.4 2406.74 613.25 2409.67 608.88 2408.91C604.51 2408.16 601.58 2404 602.34 2399.64C603.1 2395.27 607.25 2392.34 611.62 2393.1C615.99 2393.85 618.92 2398.01 618.16 2402.38Z" />
					</g>
					<g id="&lt;Group&gt;">
						<path id="&lt;Path&gt;" class="shp0" d="M645.27 2414.95C644.51 2419.31 640.35 2422.24 635.99 2421.48C631.62 2420.73 628.69 2416.57 629.45 2412.21C630.21 2407.84 634.36 2404.91 638.73 2405.67C643.1 2406.42 646.02 2410.58 645.27 2414.95Z" />
					</g>
					<g id="&lt;Group&gt;">
						<path id="&lt;Path&gt;" class="shp0" d="M672.78 2429C672.02 2433.36 667.87 2436.29 663.5 2435.53C659.13 2434.78 656.2 2430.62 656.96 2426.25C657.72 2421.89 661.87 2418.96 666.24 2419.72C670.61 2420.47 673.53 2424.63 672.78 2429Z" />
					</g>
					<g id="&lt;Group&gt;">
						<path id="&lt;Path&gt;" class="shp0" d="M896.12 2482.98C898.13 2510.02 877.85 2533.58 850.81 2535.59C823.76 2537.61 800.21 2517.33 798.19 2490.28C796.17 2463.24 816.46 2439.69 843.5 2437.67C870.54 2435.65 894.1 2455.94 896.12 2482.98Z" />
					</g>
					<g id="&lt;Group&gt;" style="opacity: 0.302">
						<path id="&lt;Path&gt;" class="shp4" d="M918.08 2499.82C920.02 2525.73 900.57 2548.31 874.66 2550.24C848.74 2552.18 826.17 2532.74 824.23 2506.82C822.3 2480.91 841.74 2458.33 867.66 2456.39C893.57 2454.46 916.15 2473.9 918.08 2499.82Z" />
						<path id="&lt;Compound Path&gt;" fill-rule="evenodd" class="shp0" d="M871.12 2552.87C845.46 2552.87 823.68 2533.01 821.74 2507.01C820.76 2493.81 824.97 2481.01 833.61 2470.98C842.24 2460.96 854.27 2454.89 867.47 2453.9C894.67 2451.86 918.54 2472.39 920.58 2499.63C922.61 2526.88 902.09 2550.7 874.84 2552.74C873.6 2552.83 872.35 2552.87 871.12 2552.87ZM871.19 2458.76C870.08 2458.76 868.96 2458.8 867.84 2458.89C855.97 2459.77 845.16 2465.23 837.39 2474.25C829.63 2483.27 825.84 2494.76 826.73 2506.63C828.55 2531.13 849.98 2549.67 874.47 2547.75C898.97 2545.92 917.42 2524.51 915.59 2500C913.84 2476.63 894.26 2458.76 871.19 2458.76Z" />
					</g>
					<g id="&lt;Group&gt;" style="opacity: 0.302">
						<path id="&lt;Path&gt;" class="shp0" d="M1024.48 2140.63C959.49 2256.39 971.52 2416.85 1059.09 2605.26C1066.82 2621.85 1072.38 2639.52 1074.11 2657.74C1080.99 2730.53 1035.99 2779.71 988.39 2760.89C984.41 2759.3 980.72 2757.33 977.21 2754.9C1014.62 2752.11 1044.44 2708.03 1038.77 2647.88C1037.62 2636.05 1034.87 2624.4 1030.98 2613.2C1029.24 2610.36 1025.09 2610.67 1023.99 2613.73C1020.9 2633.49 1005.32 2649.73 985.44 2653.09C955.08 2658.2 927.97 2633.61 930.62 2602.29C932.31 2582.41 947.08 2565.43 966.55 2560.92C977.52 2558.38 988.19 2559.79 997.37 2564.04C1002.81 2566.58 1008.46 2560.96 1006.16 2555.39C934.85 2384.22 928.79 2238.24 989.13 2130.77C996.99 2116.76 1006.54 2103.76 1016.55 2091.27C1062.54 2033.69 1067.57 1993.29 1054.63 1973.75C1062.67 1969.99 1072.21 1969.92 1080.11 1974.38C1103.3 1987.4 1107.26 2031.91 1051.9 2101.13C1041.89 2113.68 1032.34 2126.63 1024.48 2140.63Z" />
					</g>
					<g id="&lt;Group&gt;">
						<path id="&lt;Path&gt;" class="shp2" d="M875.7 2484.5C876.88 2500.27 865.05 2514 849.28 2515.18C833.52 2516.35 819.78 2504.53 818.61 2488.76C817.43 2472.99 829.26 2459.26 845.02 2458.08C860.79 2456.91 874.52 2468.73 875.7 2484.5Z" />
						<path id="&lt;Compound Path&gt;" fill-rule="evenodd" class="shp0" d="M847.1 2517.76C839.66 2517.76 832.54 2515.13 826.84 2510.22C820.54 2504.79 816.73 2497.24 816.11 2488.95C815.5 2480.66 818.14 2472.62 823.57 2466.32C828.99 2460.02 836.55 2456.21 844.84 2455.59C853.17 2454.99 861.17 2457.62 867.47 2463.05C873.76 2468.47 877.58 2476.02 878.2 2484.31C878.81 2492.61 876.17 2500.64 870.74 2506.94C865.31 2513.24 857.76 2517.05 849.47 2517.67C848.68 2517.73 847.89 2517.76 847.1 2517.76ZM847.2 2460.5C846.54 2460.5 845.87 2460.53 845.21 2460.58C838.25 2461.1 831.91 2464.3 827.36 2469.58C822.8 2474.87 820.58 2481.62 821.1 2488.58C821.62 2495.54 824.81 2501.88 830.1 2506.43C835.39 2510.98 842.14 2513.25 849.1 2512.68C856.05 2512.17 862.4 2508.97 866.95 2503.68C871.51 2498.39 873.73 2491.64 873.21 2484.69C872.69 2477.73 869.49 2471.39 864.2 2466.83C859.42 2462.71 853.44 2460.5 847.2 2460.5Z" />
					</g>
					<g id="&lt;Group&gt;" style="opacity: 0.302">
						<path id="&lt;Path&gt;" class="shp0" d="M875.69 2484.53C876.87 2500.27 865.07 2514.03 849.27 2515.2C839.03 2515.97 829.6 2511.2 823.98 2503.41C828.2 2505.4 833.05 2506.33 838.06 2505.95C853.81 2504.78 865.66 2491.02 864.48 2475.27C864.07 2469.78 862.14 2464.77 859.1 2460.65C868.27 2464.85 874.89 2473.75 875.69 2484.53Z" />
					</g>
					<g id="&lt;Group&gt;">
						<path id="&lt;Path&gt;" class="shp0" d="M1004.96 2590.32C1006.9 2616.23 987.46 2638.81 961.54 2640.75C935.62 2642.68 913.05 2623.24 911.11 2597.32C909.18 2571.41 928.62 2548.83 954.54 2546.89C980.45 2544.96 1003.03 2564.4 1004.96 2590.32Z" />
					</g>
					<g id="&lt;Group&gt;">
						<path id="&lt;Path&gt;" class="shp2" d="M986.58 2591.68C987.76 2607.44 975.93 2621.18 960.17 2622.36C944.4 2623.53 930.67 2611.7 929.49 2595.94C928.31 2580.17 940.14 2566.44 955.91 2565.26C971.67 2564.08 985.41 2575.91 986.58 2591.68Z" />
						<path id="&lt;Compound Path&gt;" fill-rule="evenodd" class="shp0" d="M958.01 2624.94C941.89 2624.94 928.22 2612.45 927 2596.12C926.38 2587.83 929.03 2579.79 934.45 2573.49C939.88 2567.2 947.43 2563.39 955.72 2562.77C972.85 2561.5 987.8 2574.37 989.08 2591.49C990.36 2608.61 977.47 2623.57 960.35 2624.85C959.57 2624.91 958.79 2624.94 958.01 2624.94ZM958.08 2567.68C957.42 2567.68 956.76 2567.7 956.09 2567.76C949.14 2568.27 942.79 2571.47 938.24 2576.76C933.69 2582.04 931.46 2588.79 931.99 2595.75C932.5 2602.71 935.7 2609.05 940.99 2613.61C946.27 2618.16 953.02 2620.42 959.98 2619.86C966.94 2619.34 973.28 2616.15 977.84 2610.86C982.39 2605.57 984.61 2598.82 984.09 2591.86C983.57 2584.91 980.38 2578.56 975.09 2574.01C970.3 2569.89 964.33 2567.68 958.08 2567.68Z" />
					</g>
					<g id="&lt;Group&gt;" style="opacity: 0.302">
						<path id="&lt;Path&gt;" class="shp0" d="M986.57 2591.7C987.75 2607.44 975.95 2621.2 960.16 2622.38C949.91 2623.15 940.49 2618.38 934.86 2610.59C939.09 2612.58 943.93 2613.5 948.95 2613.13C964.69 2611.95 976.54 2598.19 975.37 2582.45C974.96 2576.95 973.03 2571.95 969.98 2567.83C979.15 2572.03 985.77 2580.92 986.57 2591.7Z" />
					</g>
					<g id="&lt;Group&gt;">
						<path id="&lt;Path&gt;" class="shp4" d="M1025.99 2705.91C1026.5 2712.72 1021.39 2718.65 1014.58 2719.16C1007.77 2719.67 1001.83 2714.56 1001.32 2707.75C1000.82 2700.94 1005.93 2695 1012.74 2694.49C1019.55 2693.99 1025.48 2699.09 1025.99 2705.91Z" />
						<path id="&lt;Compound Path&gt;" fill-rule="evenodd" class="shp0" d="M1013.63 2721.69C1010.08 2721.69 1006.67 2720.44 1003.95 2718.09C1000.95 2715.5 999.13 2711.89 998.83 2707.93C998.22 2699.76 1004.37 2692.61 1012.55 2692C1020.78 2691.41 1027.87 2697.55 1028.49 2705.72C1029.09 2713.9 1022.94 2721.04 1014.76 2721.65C1014.38 2721.68 1014.01 2721.69 1013.63 2721.69ZM1013.66 2696.96C1013.41 2696.96 1013.17 2696.97 1012.92 2696.99C1007.49 2697.39 1003.41 2702.14 1003.82 2707.56C1004.22 2712.99 1009.04 2717.12 1014.39 2716.66C1019.81 2716.26 1023.9 2711.52 1023.5 2706.09C1023.1 2700.92 1018.77 2696.96 1013.66 2696.96Z" />
					</g>
					<g id="&lt;Group&gt;">
						<path id="&lt;Path&gt;" class="shp0" d="M947.44 2301.56C947.95 2308.37 942.84 2314.31 936.03 2314.82C929.22 2315.32 923.29 2310.21 922.78 2303.4C922.27 2296.59 927.38 2290.66 934.19 2290.15C941 2289.64 946.93 2294.75 947.44 2301.56Z" />
					</g>
					<g id="&lt;Group&gt;">
						<path id="&lt;Path&gt;" class="shp0" d="M463.76 2390.35C464.27 2397.16 459.16 2403.09 452.35 2403.6C445.53 2404.11 439.6 2399 439.09 2392.19C438.59 2385.38 443.69 2379.44 450.51 2378.94C457.32 2378.43 463.25 2383.54 463.76 2390.35Z" />
					</g>
					<g id="&lt;Group&gt;">
						<path id="&lt;Path&gt;" class="shp0" d="M614.07 1876.97C614.58 1883.78 609.47 1889.72 602.66 1890.22C595.85 1890.73 589.91 1885.62 589.41 1878.81C588.9 1872 594.01 1866.07 600.82 1865.56C607.63 1865.05 613.56 1870.16 614.07 1876.97Z" />
					</g>
					<g id="&lt;Group&gt;">
						<path id="&lt;Path&gt;" class="shp0" d="M1043.3 2043.63C1043.81 2050.44 1038.7 2056.37 1031.89 2056.88C1025.08 2057.39 1019.14 2052.28 1018.64 2045.47C1018.13 2038.66 1023.24 2032.73 1030.05 2032.22C1036.86 2031.71 1042.79 2036.82 1043.3 2043.63Z" />
					</g>
					<g id="&lt;Group&gt;">
						<path id="&lt;Path&gt;" class="shp0" d="M838.76 2046.49C839.27 2053.3 834.16 2059.24 827.35 2059.74C820.54 2060.25 814.61 2055.14 814.1 2048.33C813.59 2041.52 818.7 2035.59 825.51 2035.08C832.32 2034.57 838.26 2039.68 838.76 2046.49Z" />
					</g>
					<g id="&lt;Group&gt;" style="opacity: 0.251">
						<path id="&lt;Path&gt;" class="shp2" d="M590.45 2929.52C577.89 2962.42 523.33 2972.14 468.59 2951.24C413.84 2930.33 379.65 2886.72 392.21 2853.83C404.77 2820.93 444.17 2850.92 498.91 2871.82C553.65 2892.72 603.01 2896.62 590.45 2929.52Z" />
					</g>
					<g id="&lt;Group&gt;" style="opacity: 0.251">
						<path id="&lt;Path&gt;" class="shp2" d="M725.9 2947.31C725.25 2966.15 705.11 2980.75 680.93 2979.92C656.74 2979.08 637.66 2963.13 638.3 2944.29C638.95 2925.45 658.83 2918.35 683.02 2919.19C707.21 2920.02 726.55 2928.47 725.9 2947.31Z" />
					</g>
					<g id="&lt;Group&gt;" style="opacity: 0.302">
						<path id="&lt;Path&gt;" class="shp2" d="M864.28 2382.93C829.07 2383.39 799.9 2336.27 799.13 2277.67C798.36 2219.08 826.28 2171.21 861.49 2170.74C896.7 2170.28 883.37 2217.96 884.14 2276.56C884.91 2335.15 899.49 2382.47 864.28 2382.93Z" />
					</g>
				</g>
			</g>
		</g>
	</g>
</svg>